<?xml version="1.0" standalone="no"?>
<!DOCTYPE svg PUBLIC "-//W3C//DTD SVG 20010904//EN"
 "http://www.w3.org/TR/2001/REC-SVG-20010904/DTD/svg10.dtd">
<svg version="1.0" xmlns="http://www.w3.org/2000/svg"
 width="260.000000pt" height="260.000000pt" viewBox="0 0 260.000000 260.000000"
 preserveAspectRatio="xMidYMid meet">
<metadata>
Created by potrace 1.11, written by Peter Selinger 2001-2013
</metadata>
<g transform="translate(0.000000,260.000000) scale(0.100000,-0.100000)"
fill="#000000" stroke="none">
<path d="M0 1300 l0 -1300 1300 0 1300 0 0 1300 0 1300 -1300 0 -1300 0 0
-1300z m1360 976 c0 -9 -80 -502 -85 -523 -5 -23 -4 -23 99 -23 91 0 105 2
110 18 2 9 24 133 47 275 l42 257 134 0 c88 0 133 -4 133 -11 0 -12 -78 -484
-85 -516 l-5 -23 155 0 155 0 0 -125 0 -125 -174 0 -174 0 -6 -27 c-3 -16 -15
-84 -26 -153 -11 -69 -23 -135 -25 -147 l-5 -23 155 0 156 0 -3 -122 -3 -123
-172 -3 -171 -2 -13 -73 c-6 -39 -26 -160 -43 -267 l-32 -195 -135 -3 -136 -3
37 223 c21 123 40 244 44 270 l7 48 -104 0 -105 0 -12 -72 c-7 -40 -27 -161
-44 -268 l-32 -195 -135 -3 -136 -3 43 258 c24 142 44 264 44 271 0 9 -36 12
-145 12 l-145 0 0 125 0 125 167 2 167 3 28 160 c15 88 27 166 27 173 1 9 -34
12 -144 12 l-145 0 0 125 0 125 167 2 167 3 44 273 45 272 133 0 c74 0 134 -2
134 -4z"/>
<path d="M1226 1453 c-3 -16 -15 -84 -26 -153 -11 -69 -23 -135 -25 -148 -6
-23 -5 -23 102 -20 l107 3 28 160 c15 88 27 166 27 173 1 9 -26 12 -103 12
l-104 0 -6 -27z"/>
</g>
</svg>
