<svg width="340" height="280" viewBox="0 0 340 280" fill="none" xmlns="http://www.w3.org/2000/svg">
<rect x="2.5" y="2.5" width="335" height="275" fill="white"/>
<rect x="170" width="170" height="280" fill="#0084FF"/>
<circle cx="170.499" cy="57.9123" r="28.9123" fill="#262626"/>
<path d="M170.499 29.0001C178.167 29.0001 185.521 32.0462 190.943 37.4683C196.365 42.8904 199.412 50.2444 199.412 57.9124C199.412 65.5804 196.365 72.9344 190.943 78.3565C185.521 83.7786 178.167 86.8247 170.499 86.8247L170.499 57.9124L170.499 29.0001Z" fill="white"/>
<circle cx="170.21" cy="58.2015" r="13.0105" fill="#0084FF"/>
<path d="M32.6785 162.503V152.064H36.2373V148.828H25.0387V152.064H28.6168V162.503H32.6785Z" fill="black"/>
<path d="M41.343 162.503V157.091C41.343 155.877 41.9233 155.28 42.7549 155.28C43.722 155.28 44.0121 155.974 44.0121 157.11V162.503H47.8804V156.108C47.8804 153.932 47.01 152.256 44.3796 152.256C42.7936 152.256 41.8459 153.046 41.3624 153.816V148.25H37.4747V162.503H41.343Z" fill="black"/>
<path d="M54.6351 162.753C57.4202 162.753 59.3544 161.328 59.8379 159.209H56.0663C55.931 159.594 55.4474 160.037 54.5964 160.037C53.4939 160.037 52.9524 159.556 52.7977 158.342H59.8959C60.128 154.76 58.2713 152.256 54.6351 152.256C51.3277 152.256 49.1034 154.317 49.1034 157.437V157.553C49.1034 160.75 51.2503 162.753 54.6351 162.753ZM52.817 156.513C52.9911 155.396 53.5133 154.972 54.5771 154.972C55.6022 154.972 56.0663 155.608 56.0663 156.513H52.817Z" fill="black"/>
<path d="M68.2585 162.503V157.206C68.2585 155.742 68.8001 155.242 69.5737 155.242C70.3087 155.242 70.6762 155.819 70.6762 156.975V162.503H74.5445V157.264C74.5445 155.8 75.0087 155.242 75.821 155.242C76.5173 155.242 76.9622 155.781 76.9622 156.956V162.503H80.8304V156.243C80.8304 153.913 79.9214 152.256 77.349 152.256C75.9177 152.256 74.8539 152.93 74.1576 154.028C73.6354 152.776 72.591 152.256 71.1211 152.256C69.5544 152.256 68.6067 153.2 68.1618 154.028L68.0651 152.507H64.3902V162.503H68.2585Z" fill="black"/>
<path d="M87.5372 162.753C90.8252 162.753 93.0302 160.577 93.0302 157.572V157.437C93.0302 154.433 90.8252 152.256 87.5372 152.256C84.2492 152.256 82.0442 154.433 82.0442 157.437V157.572C82.0442 160.577 84.2492 162.753 87.5372 162.753ZM87.5372 159.902C86.3574 159.902 85.9512 159.132 85.9512 157.572V157.437C85.9512 155.877 86.3574 155.107 87.5372 155.107C88.717 155.107 89.1232 155.877 89.1232 157.437V157.572C89.1232 159.132 88.717 159.902 87.5372 159.902Z" fill="black"/>
<path d="M98.7247 162.753C101.8 162.753 103.56 161.347 103.56 159.267C103.56 157.591 102.574 156.571 99.4983 156.185C97.8156 155.974 97.6222 155.742 97.6222 155.357C97.6222 155.03 97.9317 154.76 98.5893 154.76C99.3243 154.76 99.7885 155.068 99.8271 155.646H103.405C103.251 153.528 101.549 152.256 98.6086 152.256C95.7848 152.256 93.928 153.528 93.928 155.569C93.928 157.36 95.0692 158.246 97.9704 158.689C99.7111 158.959 99.8078 159.248 99.8078 159.594C99.8078 159.941 99.479 160.211 98.7247 160.211C97.893 160.211 97.4095 159.806 97.3128 159.209H93.6766C93.812 161.385 95.456 162.753 98.7247 162.753Z" fill="black"/>
<path d="M109.674 162.753C110.409 162.753 111.26 162.637 111.86 162.483V159.729C111.415 159.864 111.125 159.922 110.699 159.922C109.887 159.922 109.5 159.729 109.5 159.074V155.222H111.821V152.507H109.5V149.31H105.632V152.507H103.91V155.222H105.632V159.228C105.632 161.54 106.85 162.753 109.674 162.753Z" fill="black"/>
<path d="M127.124 165.777V152.507H123.507L123.391 154.163C123.062 153.2 122.057 152.256 120.529 152.256C117.743 152.256 116.099 154.51 116.099 157.457V157.572C116.099 160.461 117.647 162.753 120.393 162.753C121.708 162.753 122.714 162.137 123.236 161.212V165.777H127.124ZM121.67 159.922C120.451 159.922 120.006 159.151 120.006 157.553V157.437C120.006 155.839 120.451 155.068 121.67 155.068C122.888 155.068 123.333 155.839 123.333 157.437V157.553C123.333 159.151 122.888 159.922 121.67 159.922Z" fill="black"/>
<path d="M132.128 162.753C133.579 162.753 134.604 161.906 135.107 161.097L135.204 162.503H138.917V152.507H135.01V157.842C135.01 159.228 134.43 159.729 133.656 159.729C132.921 159.729 132.496 159.228 132.496 158.073V152.507H128.608V158.824C128.608 161.231 129.672 162.753 132.128 162.753Z" fill="black"/>
<path d="M143.295 162.753C144.823 162.753 145.906 162.156 146.487 161.097L146.603 162.503H150.316V155.569C150.316 153.528 148.363 152.256 145.5 152.256C142.522 152.256 140.568 153.547 140.529 155.685H144.224C144.262 155.107 144.649 154.76 145.403 154.76C146.1 154.76 146.429 155.107 146.429 155.627V156.378L143.353 156.725C141.264 156.956 140.104 157.996 140.104 159.748C140.104 161.501 141.438 162.753 143.295 162.753ZM144.862 160.288C144.185 160.288 143.856 159.941 143.856 159.421C143.856 158.978 144.166 158.612 144.823 158.535L146.429 158.342V158.901C146.429 159.768 145.732 160.288 144.862 160.288Z" fill="black"/>
<path d="M151.804 148.25V162.503H155.673V148.25H151.804Z" fill="black"/>
<path d="M161.151 148.25H157.167V151.525H161.151V148.25ZM157.225 152.507V162.503H161.093V152.507H157.225Z" fill="black"/>
<path d="M167.675 162.503V155.222H169.996V152.507H167.675V151.679C167.675 151.024 168.062 150.831 168.874 150.831C169.377 150.831 169.725 150.927 170.034 151.024V148.27C169.435 148.116 168.584 148 167.849 148C165.025 148 163.806 149.213 163.806 151.525V152.507H162.085V155.222H163.806V162.503H167.675ZM175.005 151.525V148.25H171.021V151.525H175.005ZM174.947 152.507H171.079V162.503H174.947V152.507Z" fill="black"/>
<path d="M181.752 162.753C184.537 162.753 186.471 161.328 186.955 159.209H183.183C183.048 159.594 182.564 160.037 181.713 160.037C180.611 160.037 180.069 159.556 179.914 158.342H187.013C187.245 154.76 185.388 152.256 181.752 152.256C178.444 152.256 176.22 154.317 176.22 157.437V157.553C176.22 160.75 178.367 162.753 181.752 162.753ZM179.934 156.513C180.108 155.396 180.63 154.972 181.694 154.972C182.719 154.972 183.183 155.608 183.183 156.513H179.934Z" fill="black"/>
<path d="M192.473 162.753C194.001 162.753 195.007 161.809 195.336 160.846L195.452 162.503H199.069V148.25H195.181V153.797C194.659 152.892 193.692 152.256 192.338 152.256C189.591 152.256 188.044 154.548 188.044 157.437V157.553C188.044 160.5 189.688 162.753 192.473 162.753ZM193.614 159.922C192.396 159.922 191.951 159.151 191.951 157.553V157.437C191.951 155.839 192.396 155.068 193.614 155.068C194.833 155.068 195.278 155.839 195.278 157.437V157.553C195.278 159.151 194.833 159.922 193.614 159.922Z" fill="black"/>
<path d="M31.0732 185.614C35.3863 185.614 38.3842 183.245 38.3842 178.931V178.623C38.3842 174.328 35.4057 171.94 31.0732 171.94H25.4255V185.614H31.0732ZM29.4098 175.175H30.8798C32.8526 175.175 34.1485 176.023 34.1485 178.623V178.931C34.1485 181.512 32.8719 182.379 30.8411 182.379H29.4098V175.175Z" fill="black"/>
<path d="M44.8888 185.865C47.674 185.865 49.6081 184.439 50.0917 182.321H46.3201C46.1847 182.706 45.7012 183.149 44.8502 183.149C43.7477 183.149 43.2061 182.667 43.0514 181.454H50.1497C50.3818 177.872 48.525 175.368 44.8888 175.368C41.5815 175.368 39.3572 177.429 39.3572 180.549V180.664C39.3572 183.862 41.5041 185.865 44.8888 185.865ZM43.0707 179.624C43.2448 178.507 43.767 178.084 44.8308 178.084C45.8559 178.084 46.3201 178.719 46.3201 179.624H43.0707Z" fill="black"/>
<path d="M55.5329 185.614V180.742H60.8905V177.506H55.5329V175.175H61.7415V171.94H51.5099V185.614H55.5329Z" fill="black"/>
<path d="M66.8055 171.362H62.8212V174.636H66.8055V171.362ZM62.8792 175.618V185.614H66.7475V175.618H62.8792Z" fill="black"/>
<path d="M76.1534 185.865C79.2287 185.865 80.9888 184.459 80.9888 182.379C80.9888 180.703 80.0024 179.682 76.9271 179.297C75.2444 179.085 75.051 178.854 75.051 178.469C75.051 178.141 75.3604 177.872 76.018 177.872C76.753 177.872 77.2172 178.18 77.2559 178.758H80.8341C80.6793 176.639 78.9773 175.368 76.0374 175.368C73.2135 175.368 71.3568 176.639 71.3568 178.681C71.3568 180.472 72.4979 181.358 75.3991 181.801C77.1399 182.07 77.2366 182.359 77.2366 182.706C77.2366 183.053 76.9078 183.322 76.1534 183.322C75.3218 183.322 74.8382 182.918 74.7415 182.321H71.1053C71.2407 184.497 72.8847 185.865 76.1534 185.865Z" fill="black"/>
<path d="M87.3492 185.865C90.1344 185.865 92.0685 184.439 92.5521 182.321H88.7805C88.6451 182.706 88.1616 183.149 87.3105 183.149C86.2081 183.149 85.6665 182.667 85.5118 181.454H92.6101C92.8422 177.872 90.9854 175.368 87.3492 175.368C84.0419 175.368 81.8176 177.429 81.8176 180.549V180.664C81.8176 183.862 83.9645 185.865 87.3492 185.865ZM85.5311 179.624C85.7052 178.507 86.2274 178.084 87.2912 178.084C88.3163 178.084 88.7805 178.719 88.7805 179.624H85.5311Z" fill="black"/>
<path d="M98.9798 185.865C101.823 185.865 103.757 184.266 104.009 181.531H100.237C100.14 182.398 99.9081 183.014 98.9411 183.014C97.916 183.014 97.5485 182.205 97.5485 180.664V180.549C97.5485 179.066 97.916 178.218 98.9411 178.218C99.9081 178.218 100.16 178.873 100.256 179.759H104.047C103.738 176.967 101.823 175.368 98.9798 175.368C95.7304 175.368 93.6415 177.41 93.6415 180.549V180.664C93.6415 183.842 95.7304 185.865 98.9798 185.865Z" fill="black"/>
<path d="M108.613 185.865C110.063 185.865 111.089 185.017 111.591 184.208L111.688 185.614H115.402V175.618H111.495V180.953C111.495 182.34 110.914 182.841 110.141 182.841C109.406 182.841 108.98 182.34 108.98 181.184V175.618H105.093V181.936C105.093 184.343 106.156 185.865 108.613 185.865Z" fill="black"/>
<path d="M120.824 185.614V181.281C120.824 179.894 121.501 179.104 123.319 179.104C123.629 179.104 123.938 179.124 124.228 179.162V175.503C124.035 175.464 123.822 175.445 123.551 175.445C121.985 175.445 121.114 176.504 120.708 177.602L120.631 175.618H116.956V185.614H120.824Z" fill="black"/>
<path d="M129.268 171.362H125.284V174.636H129.268V171.362ZM125.342 175.618V185.614H129.21V175.618H125.342Z" fill="black"/>
<path d="M135.985 185.865C136.72 185.865 137.571 185.749 138.171 185.595V182.841C137.726 182.976 137.436 183.033 137.01 183.033C136.198 183.033 135.811 182.841 135.811 182.186V178.334H138.132V175.618H135.811V172.421H131.943V175.618H130.221V178.334H131.943V182.34C131.943 184.651 133.161 185.865 135.985 185.865Z" fill="black"/>
<path d="M145.1 188.888L150.091 175.618H146.164L144.482 181.319L142.76 175.618H138.699L142.451 185.46L141.097 188.888H145.1Z" fill="black"/>
<path d="M158.015 188.888V184.324C158.537 185.248 159.543 185.865 160.858 185.865C163.605 185.865 165.152 183.573 165.152 180.684V180.568C165.152 177.621 163.508 175.368 160.723 175.368C159.195 175.368 158.189 176.312 157.86 177.275L157.744 175.618H154.127V188.888H158.015ZM159.582 183.033C158.363 183.033 157.918 182.263 157.918 180.664V180.549C157.918 178.95 158.363 178.18 159.582 178.18C160.8 178.18 161.245 178.95 161.245 180.549V180.664C161.245 182.263 160.8 183.033 159.582 183.033Z" fill="black"/>
<path d="M170.292 185.614V181.281C170.292 179.894 170.969 179.104 172.787 179.104C173.096 179.104 173.406 179.124 173.696 179.162V175.503C173.503 175.464 173.29 175.445 173.019 175.445C171.452 175.445 170.582 176.504 170.176 177.602L170.098 175.618H166.424V185.614H170.292Z" fill="black"/>
<path d="M179.843 185.865C183.131 185.865 185.336 183.688 185.336 180.684V180.549C185.336 177.544 183.131 175.368 179.843 175.368C176.555 175.368 174.35 177.544 174.35 180.549V180.684C174.35 183.688 176.555 185.865 179.843 185.865ZM179.843 183.014C178.663 183.014 178.257 182.244 178.257 180.684V180.549C178.257 178.989 178.663 178.218 179.843 178.218C181.023 178.218 181.429 178.989 181.429 180.549V180.684C181.429 182.244 181.023 183.014 179.843 183.014Z" fill="black"/>
<path d="M190.625 171.362H186.64V174.636H190.625V171.362ZM186.737 189.139C189.406 189.139 190.547 187.829 190.547 185.614V175.618H186.679V185.46C186.679 186.076 186.427 186.365 185.809 186.365C185.422 186.365 185.19 186.288 184.996 186.173V188.831C185.422 189.023 186.079 189.139 186.737 189.139Z" fill="black"/>
<path d="M197.353 185.865C200.139 185.865 202.073 184.439 202.556 182.321H198.785C198.649 182.706 198.166 183.149 197.315 183.149C196.212 183.149 195.671 182.667 195.516 181.454H202.614C202.846 177.872 200.99 175.368 197.353 175.368C194.046 175.368 191.822 177.429 191.822 180.549V180.664C191.822 183.862 193.969 185.865 197.353 185.865ZM195.535 179.624C195.709 178.507 196.232 178.084 197.295 178.084C198.32 178.084 198.785 178.719 198.785 179.624H195.535Z" fill="black"/>
<path d="M208.984 185.865C211.827 185.865 213.761 184.266 214.013 181.531H210.241C210.144 182.398 209.912 183.014 208.945 183.014C207.92 183.014 207.553 182.205 207.553 180.664V180.549C207.553 179.066 207.92 178.218 208.945 178.218C209.912 178.218 210.164 178.873 210.26 179.759H214.051C213.742 176.967 211.827 175.368 208.984 175.368C205.735 175.368 203.646 177.41 203.646 180.549V180.664C203.646 183.842 205.735 185.865 208.984 185.865Z" fill="black"/>
<path d="M220.188 185.865C220.923 185.865 221.774 185.749 222.374 185.595V182.841C221.929 182.976 221.639 183.033 221.213 183.033C220.401 183.033 220.014 182.841 220.014 182.186V178.334H222.335V175.618H220.014V172.421H216.146V175.618H214.424V178.334H216.146V182.34C216.146 184.651 217.364 185.865 220.188 185.865Z" fill="black"/>
<path d="M228.165 185.865C231.24 185.865 233 184.459 233 182.379C233 180.703 232.014 179.682 228.938 179.297C227.256 179.085 227.062 178.854 227.062 178.469C227.062 178.141 227.372 177.872 228.029 177.872C228.764 177.872 229.228 178.18 229.267 178.758H232.845C232.691 176.639 230.988 175.368 228.049 175.368C225.225 175.368 223.368 176.639 223.368 178.681C223.368 180.472 224.509 181.358 227.41 181.801C229.151 182.07 229.248 182.359 229.248 182.706C229.248 183.053 228.919 183.322 228.165 183.322C227.333 183.322 226.849 182.918 226.753 182.321H223.117C223.252 184.497 224.896 185.865 228.165 185.865Z" fill="black"/>
<path d="M28.1913 208.976C29.7193 208.976 30.8024 208.379 31.3827 207.32L31.4987 208.726H35.2123V201.792C35.2123 199.751 33.2588 198.48 30.3962 198.48C27.4177 198.48 25.4642 199.77 25.4255 201.908H29.1197C29.1584 201.33 29.5452 200.983 30.2995 200.983C30.9958 200.983 31.3246 201.33 31.3246 201.85V202.601L28.2494 202.948C26.1605 203.179 25 204.219 25 205.972C25 207.724 26.3346 208.976 28.1913 208.976ZM29.758 206.511C29.081 206.511 28.7522 206.164 28.7522 205.644C28.7522 205.201 29.0617 204.835 29.7193 204.758L31.3246 204.566V205.124C31.3246 205.991 30.6283 206.511 29.758 206.511Z" fill="black"/>
<path d="M36.7003 194.474V208.726H40.5686V194.474H36.7003Z" fill="black"/>
<path d="M42.1212 194.474V208.726H45.9895V194.474H42.1212Z" fill="black"/>
<path d="M54.6605 194.474H50.6761V197.748H54.6605V194.474ZM50.7342 198.73V208.726H54.6024V198.73H50.7342Z" fill="black"/>
<path d="M60.0233 208.726V203.314C60.0233 202.101 60.6036 201.503 61.4352 201.503C62.4023 201.503 62.6924 202.197 62.6924 203.333V208.726H66.5607V202.332C66.5607 200.155 65.6904 198.48 63.0599 198.48C61.3385 198.48 60.3715 199.423 59.9266 200.232L59.8299 198.73H56.155V208.726H60.0233Z" fill="black"/>
<path d="M76.4688 208.976C79.7568 208.976 81.9617 206.8 81.9617 203.795V203.661C81.9617 200.656 79.7568 198.48 76.4688 198.48C73.1808 198.48 70.9758 200.656 70.9758 203.661V203.795C70.9758 206.8 73.1808 208.976 76.4688 208.976ZM76.4688 206.126C75.289 206.126 74.8828 205.355 74.8828 203.795V203.661C74.8828 202.101 75.289 201.33 76.4688 201.33C77.6486 201.33 78.0548 202.101 78.0548 203.661V203.795C78.0548 205.355 77.6486 206.126 76.4688 206.126Z" fill="black"/>
<path d="M87.1088 208.726V203.314C87.1088 202.101 87.6891 201.503 88.5207 201.503C89.4878 201.503 89.7779 202.197 89.7779 203.333V208.726H93.6462V202.332C93.6462 200.155 92.7758 198.48 90.1454 198.48C88.424 198.48 87.457 199.423 87.0121 200.232L86.9154 198.73H83.2405V208.726H87.1088Z" fill="black"/>
<path d="M100.401 208.976C103.186 208.976 105.12 207.551 105.604 205.432H101.832C101.697 205.818 101.213 206.261 100.362 206.261C99.2597 206.261 98.7182 205.779 98.5635 204.566H105.662C105.894 200.983 104.037 198.48 100.401 198.48C97.0935 198.48 94.8692 200.54 94.8692 203.661V203.776C94.8692 206.973 97.0161 208.976 100.401 208.976ZM98.5828 202.736C98.7569 201.619 99.2791 201.195 100.343 201.195C101.368 201.195 101.832 201.831 101.832 202.736H98.5828Z" fill="black"/>
<path d="M114.044 212V207.435C114.566 208.36 115.572 208.976 116.887 208.976C119.633 208.976 121.181 206.684 121.181 203.795V203.68C121.181 200.733 119.537 198.48 116.751 198.48C115.223 198.48 114.218 199.423 113.889 200.386L113.773 198.73H110.156V212H114.044ZM115.61 206.145C114.392 206.145 113.947 205.375 113.947 203.776V203.661C113.947 202.062 114.392 201.292 115.61 201.292C116.829 201.292 117.274 202.062 117.274 203.661V203.776C117.274 205.375 116.829 206.145 115.61 206.145Z" fill="black"/>
<path d="M122.452 194.474V208.726H126.32V194.474H122.452Z" fill="black"/>
<path d="M130.697 208.976C132.225 208.976 133.308 208.379 133.888 207.32L134.004 208.726H137.718V201.792C137.718 199.751 135.764 198.48 132.902 198.48C129.923 198.48 127.97 199.77 127.931 201.908H131.625C131.664 201.33 132.051 200.983 132.805 200.983C133.501 200.983 133.83 201.33 133.83 201.85V202.601L130.755 202.948C128.666 203.179 127.506 204.219 127.506 205.972C127.506 207.724 128.84 208.976 130.697 208.976ZM132.264 206.511C131.587 206.511 131.258 206.164 131.258 205.644C131.258 205.201 131.567 204.835 132.225 204.758L133.83 204.566V205.124C133.83 205.991 133.134 206.511 132.264 206.511Z" fill="black"/>
<path d="M144.273 208.976C147.117 208.976 149.051 207.378 149.302 204.643H145.531C145.434 205.509 145.202 206.126 144.235 206.126C143.21 206.126 142.842 205.317 142.842 203.776V203.661C142.842 202.178 143.21 201.33 144.235 201.33C145.202 201.33 145.453 201.985 145.55 202.871H149.341C149.031 200.078 147.117 198.48 144.273 198.48C141.024 198.48 138.935 200.521 138.935 203.661V203.776C138.935 206.954 141.024 208.976 144.273 208.976Z" fill="black"/>
<path d="M155.611 208.976C158.396 208.976 160.33 207.551 160.814 205.432H157.042C156.907 205.818 156.423 206.261 155.572 206.261C154.47 206.261 153.928 205.779 153.773 204.566H160.872C161.104 200.983 159.247 198.48 155.611 198.48C152.303 198.48 150.079 200.54 150.079 203.661V203.776C150.079 206.973 152.226 208.976 155.611 208.976ZM153.793 202.736C153.967 201.619 154.489 201.195 155.553 201.195C156.578 201.195 157.042 201.831 157.042 202.736H153.793Z" fill="black"/>
<g clip-path="url(#clip0_3945_11792)">
<g filter="url(#filter0_i_3945_11792)">
<path d="M164.858 126.229L25 126.229L25 101.882L62.315 101.882L86.4084 104.346L176.611 105.795H315L310.593 130.431H276.51L259.174 128.982L240.958 130.431H225.385L204.524 128.982H173.379L164.858 126.229Z" fill="#1B1B1B"/>
</g>
<path d="M35.4568 124.471H28.3926V106.218H35.3851C37.2737 106.218 38.9053 106.583 40.2799 107.314C41.6605 108.039 42.7243 109.084 43.4713 110.451C44.2244 111.812 44.6009 113.443 44.6009 115.344C44.6009 117.245 44.2274 118.879 43.4803 120.246C42.7333 121.607 41.6754 122.652 40.3068 123.383C38.9382 124.108 37.3215 124.471 35.4568 124.471ZM33.377 120.264H35.2775C36.186 120.264 36.9599 120.118 37.5994 119.827C38.2449 119.536 38.7349 119.034 39.0696 118.321C39.4103 117.608 39.5806 116.616 39.5806 115.344C39.5806 114.073 39.4073 113.08 39.0607 112.367C38.72 111.654 38.218 111.152 37.5546 110.861C36.8972 110.57 36.0903 110.424 35.1341 110.424H33.377V120.264ZM53.5769 124.72C52.1067 124.72 50.8397 124.441 49.7758 123.882C48.718 123.318 47.9022 122.51 47.3284 121.458C46.7607 120.401 46.4768 119.135 46.4768 117.661C46.4768 116.247 46.7637 115.011 47.3374 113.954C47.9112 112.896 48.721 112.073 49.7669 111.485C50.8128 110.897 52.0469 110.603 53.4693 110.603C54.5092 110.603 55.4505 110.763 56.2932 111.084C57.136 111.405 57.8561 111.871 58.4538 112.483C59.0515 113.089 59.5116 113.826 59.8344 114.693C60.1572 115.561 60.3185 116.538 60.3185 117.626V118.767H48.0187V116.057H55.7643C55.7583 115.665 55.6567 115.32 55.4595 115.023C55.2683 114.72 55.0083 114.485 54.6796 114.319C54.3568 114.147 53.9893 114.061 53.5769 114.061C53.1765 114.061 52.8089 114.147 52.4742 114.319C52.1395 114.485 51.8706 114.717 51.6674 115.014C51.4702 115.311 51.3656 115.659 51.3536 116.057V118.98C51.3536 119.42 51.4463 119.812 51.6316 120.157C51.8168 120.502 52.0828 120.772 52.4294 120.968C52.7761 121.164 53.1944 121.262 53.6845 121.262C54.0251 121.262 54.3359 121.215 54.6168 121.119C54.9037 121.024 55.1487 120.888 55.3519 120.71C55.5551 120.525 55.7046 120.305 55.8002 120.05H60.3185C60.1629 121.001 59.7956 121.827 59.2159 122.528C58.6359 123.223 57.8681 123.764 56.9117 124.15C55.9615 124.53 54.8499 124.72 53.5769 124.72ZM62.2661 124.471V106.218H75.1754V110.21H67.2504V113.348H74.3865V117.341H67.2504V124.471H62.2661ZM77.0804 124.471V110.781H82.029V124.471H77.0804ZM79.5547 109.355C78.8851 109.355 78.3114 109.135 77.8333 108.695C77.3552 108.256 77.1161 107.727 77.1161 107.109C77.1161 106.491 77.3552 105.962 77.8333 105.522C78.3114 105.083 78.8851 104.863 79.5547 104.863C80.23 104.863 80.8037 105.083 81.2758 105.522C81.7538 105.962 81.993 106.491 81.993 107.109C81.993 107.727 81.7538 108.256 81.2758 108.695C80.8037 109.135 80.23 109.355 79.5547 109.355ZM99.405 111.922C99.3571 111.327 99.133 110.864 98.7326 110.531C98.3381 110.199 97.7373 110.032 96.9307 110.032C96.4167 110.032 95.9954 110.095 95.6666 110.219C95.3438 110.338 95.1049 110.502 94.9493 110.71C94.7941 110.917 94.7133 111.155 94.7073 111.423C94.6953 111.642 94.7341 111.841 94.8237 112.02C94.9193 112.192 95.0689 112.349 95.2721 112.492C95.4754 112.629 95.7354 112.753 96.0522 112.866C96.3687 112.979 96.7452 113.08 97.1816 113.169L98.6878 113.49C99.7036 113.704 100.573 113.986 101.296 114.337C102.019 114.688 102.611 115.1 103.072 115.576C103.532 116.045 103.869 116.574 104.084 117.162C104.306 117.75 104.419 118.392 104.425 119.087C104.419 120.288 104.117 121.304 103.52 122.136C102.922 122.967 102.067 123.6 100.956 124.034C99.85 124.468 98.5202 124.685 96.9664 124.685C95.3706 124.685 93.9783 124.45 92.789 123.98C91.6056 123.511 90.6852 122.789 90.0278 121.815C89.3762 120.834 89.0477 119.581 89.0417 118.054H93.7751C93.8048 118.612 93.9452 119.081 94.1964 119.462C94.4473 119.842 94.8001 120.13 95.2542 120.326C95.7142 120.522 96.2611 120.62 96.8947 120.62C97.4268 120.62 97.872 120.555 98.2305 120.424C98.589 120.294 98.861 120.112 99.0462 119.881C99.2315 119.649 99.3271 119.384 99.3331 119.087C99.3271 118.808 99.2346 118.565 99.0554 118.357C98.8818 118.143 98.595 117.953 98.1945 117.786C97.7941 117.614 97.2532 117.453 96.5719 117.305L94.7433 116.913C93.1175 116.562 91.8357 115.977 90.8972 115.157C89.965 114.331 89.5018 113.205 89.5078 111.779C89.5018 110.62 89.8126 109.607 90.44 108.74C91.0736 107.866 91.9493 107.186 93.0667 106.699C94.1904 106.212 95.4782 105.968 96.9307 105.968C98.4129 105.968 99.6947 106.215 100.776 106.708C101.858 107.201 102.692 107.896 103.278 108.793C103.869 109.685 104.168 110.727 104.174 111.922H99.405ZM112.991 124.72C111.521 124.72 110.254 124.441 109.19 123.882C108.132 123.318 107.316 122.51 106.742 121.458C106.175 120.401 105.891 119.135 105.891 117.661C105.891 116.247 106.178 115.011 106.752 113.954C107.325 112.896 108.135 112.073 109.181 111.485C110.227 110.897 111.461 110.603 112.884 110.603C113.923 110.603 114.865 110.763 115.707 111.084C116.55 111.405 117.27 111.871 117.868 112.483C118.466 113.089 118.926 113.826 119.248 114.693C119.571 115.561 119.732 116.538 119.732 117.626V118.767H107.433V116.057H115.178C115.172 115.665 115.071 115.32 114.873 115.023C114.682 114.72 114.422 114.485 114.094 114.319C113.771 114.147 113.403 114.061 112.991 114.061C112.591 114.061 112.223 114.147 111.888 114.319C111.554 114.485 111.285 114.717 111.081 115.014C110.884 115.311 110.78 115.659 110.768 116.057V118.98C110.768 119.42 110.86 119.812 111.046 120.157C111.231 120.502 111.497 120.772 111.843 120.968C112.19 121.164 112.608 121.262 113.098 121.262C113.439 121.262 113.75 121.215 114.031 121.119C114.318 121.024 114.563 120.888 114.766 120.71C114.969 120.525 115.119 120.305 115.214 120.05H119.732C119.577 121.001 119.21 121.827 118.63 122.528C118.05 123.223 117.282 123.764 116.326 124.15C115.376 124.53 114.264 124.72 112.991 124.72ZM128.386 124.72C126.892 124.72 125.613 124.426 124.549 123.838C123.485 123.244 122.669 122.418 122.101 121.36C121.534 120.297 121.25 119.064 121.25 117.661C121.25 116.259 121.534 115.029 122.101 113.972C122.669 112.908 123.485 112.082 124.549 111.494C125.613 110.9 126.892 110.603 128.386 110.603C129.736 110.603 130.905 110.846 131.891 111.333C132.883 111.815 133.651 112.498 134.195 113.383C134.739 114.263 135.014 115.297 135.02 116.485H130.43C130.364 115.766 130.155 115.219 129.802 114.845C129.456 114.465 129.007 114.275 128.457 114.275C128.027 114.275 127.651 114.399 127.328 114.649C127.005 114.893 126.754 115.264 126.575 115.763C126.396 116.256 126.306 116.877 126.306 117.626C126.306 118.374 126.396 118.998 126.575 119.497C126.754 119.991 127.005 120.362 127.328 120.611C127.651 120.855 128.027 120.977 128.457 120.977C128.822 120.977 129.145 120.894 129.426 120.727C129.707 120.555 129.934 120.305 130.107 119.979C130.286 119.646 130.394 119.242 130.43 118.767H135.02C135.002 119.973 134.724 121.024 134.186 121.922C133.648 122.813 132.886 123.502 131.9 123.989C130.92 124.477 129.748 124.72 128.386 124.72ZM145.99 118.481V110.781H150.939V124.471H146.241V121.868H146.098C145.799 122.742 145.276 123.425 144.529 123.918C143.782 124.405 142.895 124.649 141.867 124.649C140.904 124.649 140.062 124.429 139.339 123.989C138.621 123.55 138.062 122.944 137.662 122.171C137.268 121.399 137.067 120.513 137.061 119.515V110.781H142.01V118.481C142.016 119.159 142.189 119.69 142.53 120.077C142.877 120.463 143.361 120.656 143.982 120.656C144.395 120.656 144.75 120.57 145.049 120.398C145.354 120.219 145.587 119.97 145.748 119.649C145.916 119.322 145.996 118.933 145.99 118.481ZM153.456 124.471V110.781H158.261V113.383H158.404C158.655 112.421 159.053 111.717 159.597 111.271C160.147 110.825 160.789 110.603 161.524 110.603C161.739 110.603 161.951 110.62 162.161 110.656C162.376 110.686 162.582 110.73 162.779 110.79V114.988C162.534 114.904 162.232 114.842 161.874 114.8C161.515 114.759 161.207 114.738 160.95 114.738C160.466 114.738 160.03 114.848 159.641 115.068C159.259 115.282 158.957 115.585 158.736 115.977C158.515 116.363 158.404 116.818 158.404 117.341V124.471H153.456ZM164.402 124.471V110.781H169.35V124.471H164.402ZM166.876 109.355C166.207 109.355 165.633 109.135 165.155 108.695C164.677 108.256 164.438 107.727 164.438 107.109C164.438 106.491 164.677 105.962 165.155 105.522C165.633 105.083 166.207 104.863 166.876 104.863C167.552 104.863 168.125 105.083 168.597 105.522C169.075 105.962 169.315 106.491 169.315 107.109C169.315 107.727 169.075 108.256 168.597 108.695C168.125 109.135 167.552 109.355 166.876 109.355ZM180.083 110.781V114.346H171.011V110.781H180.083ZM172.768 107.501H177.717V120.068C177.717 120.258 177.75 120.418 177.815 120.549C177.881 120.674 177.983 120.769 178.12 120.834C178.258 120.894 178.434 120.923 178.649 120.923C178.798 120.923 178.972 120.906 179.169 120.87C179.372 120.834 179.522 120.805 179.617 120.781L180.335 124.239C180.113 124.304 179.797 124.384 179.384 124.48C178.978 124.575 178.494 124.637 177.932 124.667C176.796 124.726 175.843 124.61 175.072 124.319C174.301 124.022 173.721 123.556 173.333 122.92C172.944 122.284 172.756 121.488 172.768 120.531V107.501ZM185.115 129.604C184.547 129.604 184.006 129.56 183.492 129.471C182.978 129.387 182.527 129.272 182.139 129.123L183.214 125.629C183.621 125.772 183.991 125.864 184.326 125.906C184.667 125.947 184.957 125.923 185.195 125.834C185.441 125.745 185.617 125.576 185.725 125.326L185.832 125.077L180.991 110.781H186.155L188.378 120.264H188.521L190.781 110.781H195.98L190.96 125.611C190.709 126.366 190.344 127.043 189.866 127.644C189.394 128.25 188.773 128.728 188.001 129.078C187.231 129.429 186.268 129.604 185.115 129.604ZM207.115 124.471H201.736L207.796 106.218H214.609L220.669 124.471H215.29L211.274 111.244H211.131L207.115 124.471ZM206.111 117.269H216.223V120.977H206.111V117.269ZM227.458 106.218V124.471H222.509V106.218H227.458ZM234.928 106.218V124.471H229.979V106.218H234.928ZM237.449 124.471V110.781H242.398V124.471H237.449ZM239.923 109.355C239.254 109.355 238.68 109.135 238.202 108.695C237.724 108.256 237.485 107.727 237.485 107.109C237.485 106.491 237.724 105.962 238.202 105.522C238.68 105.083 239.254 104.863 239.923 104.863C240.599 104.863 241.172 105.083 241.645 105.522C242.123 105.962 242.362 106.491 242.362 107.109C242.362 107.727 242.123 108.256 241.645 108.695C241.172 109.135 240.599 109.355 239.923 109.355ZM248.756 124.685C247.877 124.685 247.101 124.542 246.425 124.257C245.756 123.966 245.23 123.526 244.847 122.938C244.465 122.349 244.273 121.601 244.273 120.692C244.273 119.943 244.402 119.304 244.659 118.775C244.916 118.241 245.275 117.804 245.735 117.465C246.195 117.127 246.73 116.868 247.339 116.69C247.955 116.512 248.618 116.396 249.33 116.342C250.101 116.283 250.719 116.212 251.185 116.128C251.658 116.039 251.998 115.917 252.207 115.763C252.416 115.603 252.521 115.392 252.521 115.13V115.095C252.521 114.738 252.384 114.465 252.109 114.275C251.834 114.084 251.481 113.989 251.051 113.989C250.579 113.989 250.193 114.093 249.895 114.301C249.602 114.503 249.425 114.815 249.366 115.237H244.811C244.871 114.405 245.137 113.639 245.609 112.938C246.087 112.231 246.784 111.666 247.698 111.244C248.612 110.816 249.754 110.603 251.123 110.603C252.109 110.603 252.993 110.718 253.776 110.95C254.559 111.176 255.226 111.494 255.775 111.904C256.325 112.308 256.743 112.783 257.03 113.33C257.323 113.871 257.47 114.459 257.47 115.095V124.471H252.844V122.545H252.736C252.461 123.056 252.127 123.469 251.732 123.784C251.344 124.099 250.899 124.328 250.397 124.471C249.901 124.613 249.354 124.685 248.756 124.685ZM250.37 121.583C250.746 121.583 251.099 121.506 251.428 121.351C251.762 121.197 252.034 120.974 252.243 120.683C252.452 120.392 252.557 120.038 252.557 119.622V118.481C252.426 118.535 252.285 118.585 252.136 118.633C251.992 118.68 251.837 118.725 251.67 118.767C251.508 118.808 251.335 118.847 251.15 118.882C250.97 118.918 250.782 118.951 250.585 118.98C250.202 119.04 249.889 119.138 249.643 119.275C249.404 119.405 249.225 119.569 249.106 119.765C248.992 119.955 248.935 120.169 248.935 120.406C248.935 120.787 249.07 121.078 249.339 121.28C249.608 121.482 249.951 121.583 250.37 121.583ZM264.783 116.77V124.471H259.834V110.781H264.532V113.383H264.675C264.974 112.516 265.5 111.835 266.253 111.342C267.012 110.849 267.897 110.603 268.906 110.603C269.881 110.603 270.726 110.825 271.443 111.271C272.167 111.711 272.726 112.317 273.12 113.089C273.521 113.862 273.718 114.744 273.712 115.736V124.471H268.763V116.77C268.769 116.093 268.596 115.561 268.243 115.175C267.897 114.789 267.413 114.595 266.791 114.595C266.384 114.595 266.029 114.685 265.724 114.863C265.425 115.035 265.195 115.285 265.034 115.611C264.872 115.932 264.789 116.319 264.783 116.77ZM282.789 124.72C281.294 124.72 280.015 124.426 278.952 123.838C277.888 123.244 277.072 122.418 276.504 121.36C275.936 120.297 275.652 119.064 275.652 117.661C275.652 116.259 275.936 115.029 276.504 113.972C277.072 112.908 277.888 112.082 278.952 111.494C280.015 110.9 281.294 110.603 282.789 110.603C284.139 110.603 285.308 110.846 286.294 111.333C287.286 111.815 288.054 112.498 288.598 113.383C289.141 114.263 289.417 115.297 289.423 116.485H284.832C284.767 115.766 284.558 115.219 284.205 114.845C283.858 114.465 283.41 114.275 282.86 114.275C282.43 114.275 282.053 114.399 281.731 114.649C281.408 114.893 281.157 115.264 280.978 115.763C280.798 116.256 280.709 116.877 280.709 117.626C280.709 118.374 280.798 118.998 280.978 119.497C281.157 119.991 281.408 120.362 281.731 120.611C282.053 120.855 282.43 120.977 282.86 120.977C283.225 120.977 283.547 120.894 283.828 120.727C284.109 120.555 284.336 120.305 284.51 119.979C284.689 119.646 284.797 119.242 284.832 118.767H289.423C289.405 119.973 289.127 121.024 288.589 121.922C288.051 122.813 287.289 123.502 286.303 123.989C285.322 124.477 284.151 124.72 282.789 124.72ZM298.062 124.72C296.592 124.72 295.325 124.441 294.261 123.882C293.203 123.318 292.388 122.51 291.814 121.458C291.246 120.401 290.962 119.135 290.962 117.661C290.962 116.247 291.249 115.011 291.823 113.954C292.396 112.896 293.206 112.073 294.252 111.485C295.298 110.897 296.532 110.603 297.955 110.603C298.994 110.603 299.936 110.763 300.779 111.084C301.621 111.405 302.341 111.871 302.939 112.483C303.537 113.089 303.997 113.826 304.32 114.693C304.642 115.561 304.804 116.538 304.804 117.626V118.767H292.504V116.057H300.25C300.244 115.665 300.142 115.32 299.945 115.023C299.754 114.72 299.494 114.485 299.165 114.319C298.842 114.147 298.475 114.061 298.062 114.061C297.662 114.061 297.294 114.147 296.96 114.319C296.625 114.485 296.356 114.717 296.153 115.014C295.956 115.311 295.851 115.659 295.839 116.057V118.98C295.839 119.42 295.932 119.812 296.117 120.157C296.302 120.502 296.568 120.772 296.915 120.968C297.261 121.164 297.68 121.262 298.17 121.262C298.51 121.262 298.821 121.215 299.102 121.119C299.389 121.024 299.634 120.888 299.837 120.71C300.041 120.525 300.19 120.305 300.285 120.05H304.804C304.648 121.001 304.281 121.827 303.701 122.528C303.121 123.223 302.353 123.764 301.397 124.15C300.447 124.53 299.335 124.72 298.062 124.72Z" fill="white"/>
<path d="M165.295 108.695C165.773 109.135 166.347 109.355 167.016 109.355C167.692 109.355 168.311 109.135 168.783 108.695C169.261 108.255 169.455 107.726 169.455 107.109C169.455 106.491 169.216 105.962 168.738 105.522C168.266 105.082 167.692 104.863 167.016 104.863C166.347 104.863 165.773 105.082 165.295 105.522C164.817 105.962 164.578 106.491 164.578 107.109C164.578 107.726 164.817 108.255 165.295 108.695Z" fill="#0084FF"/>
<path d="M77.9565 108.695C78.4346 109.135 79.0086 109.355 79.6779 109.355C80.3532 109.355 80.9269 109.175 81.399 108.736C81.8771 108.296 82.1491 107.726 82.1491 107.109C82.1491 106.491 81.8771 105.93 81.399 105.49C80.9269 105.05 80.3532 104.863 79.6779 104.863C79.0086 104.863 78.4346 105.082 77.9565 105.522C77.4785 105.962 77.2393 106.491 77.2393 107.109C77.2393 107.726 77.4785 108.255 77.9565 108.695Z" fill="#0084FF"/>
<path d="M238.333 108.695C238.812 109.135 239.385 109.355 240.055 109.355C240.73 109.355 241.349 109.135 241.821 108.695C242.299 108.256 242.493 107.727 242.493 107.109C242.493 106.491 242.254 105.962 241.776 105.522C241.304 105.083 240.73 104.863 240.055 104.863C239.385 104.863 238.812 105.083 238.333 105.522C237.855 105.962 237.616 106.491 237.616 107.109C237.616 107.727 237.855 108.256 238.333 108.695Z" fill="#0084FF"/>
</g>
<rect x="205" y="227" width="110" height="30" fill="white"/>
<path d="M30.559 238.909V235.645H33.602V233.996H30.559V230.732H28.808V233.996H25.765V235.645H28.808V238.909H30.559ZM49.826 241L45.185 228.93H43.026L38.385 241H40.391L41.479 238.059H46.664L47.735 241H49.826ZM44.08 231.038L46.052 236.41H42.091L44.08 231.038ZM54.0019 241.221C55.2599 241.221 56.1949 240.524 56.7049 239.674L56.7389 241H58.5579V232.245H56.6709V237.107C56.6709 238.671 55.9059 239.657 54.6139 239.657C53.3559 239.657 52.8629 238.858 52.8629 237.515V232.245H50.9759V237.872C50.9759 239.929 51.9619 241.221 54.0019 241.221ZM64.1978 241.221C65.6938 241.221 66.6798 240.371 67.1048 239.538L67.1558 241H68.8898V228.42H67.0198V233.52C66.5098 232.704 65.5578 232.041 64.1638 232.041C61.8518 232.041 60.4238 233.894 60.4238 236.495V236.75C60.4238 239.368 61.9028 241.221 64.1978 241.221ZM64.6738 239.708C63.1608 239.708 62.3278 238.62 62.3278 236.75V236.495C62.3278 234.608 63.1778 233.52 64.6738 233.52C66.2208 233.52 67.0878 234.608 67.0878 236.495V236.75C67.0878 238.637 66.2378 239.708 64.6738 239.708ZM73.0189 228.42H71.0639V230.97H73.0189V228.42ZM71.0979 232.245V241H72.9679V232.245H71.0979ZM78.9982 241.221C79.4402 241.221 80.0352 241.136 80.4262 241.017V239.521C80.1712 239.606 79.7292 239.691 79.3552 239.691C78.3182 239.691 77.9952 239.3 77.9952 238.433V233.656H80.3752V232.245H77.9952V229.508H76.1252V232.245H74.4252V233.656H76.1252V238.637C76.1252 240.337 77.0772 241.221 78.9982 241.221ZM90.662 241V230.579H94.232V228.93H85.12V230.579H88.673V241H90.662ZM98.3666 241.221C101.002 241.221 102.702 239.419 102.702 236.75V236.495C102.702 233.826 101.002 232.041 98.3666 232.041C95.7486 232.041 94.0486 233.826 94.0486 236.495V236.75C94.0486 239.419 95.7486 241.221 98.3666 241.221ZM98.3666 239.708C96.7856 239.708 95.9526 238.637 95.9526 236.75V236.495C95.9526 234.608 96.7856 233.554 98.3666 233.554C99.9646 233.554 100.798 234.608 100.798 236.495V236.75C100.798 238.637 99.9646 239.708 98.3666 239.708ZM108.551 241.221C111.186 241.221 112.886 239.419 112.886 236.75V236.495C112.886 233.826 111.186 232.041 108.551 232.041C105.933 232.041 104.233 233.826 104.233 236.495V236.75C104.233 239.419 105.933 241.221 108.551 241.221ZM108.551 239.708C106.97 239.708 106.137 238.637 106.137 236.75V236.495C106.137 234.608 106.97 233.554 108.551 233.554C110.149 233.554 110.982 234.608 110.982 236.495V236.75C110.982 238.637 110.149 239.708 108.551 239.708ZM114.758 228.42V241H116.628V228.42H114.758ZM122.25 241.221C124.443 241.221 125.888 240.099 125.888 238.433C125.888 236.903 124.817 236.172 122.607 235.815C121.009 235.56 120.516 235.237 120.516 234.557C120.516 233.843 121.145 233.418 122.114 233.418C123.117 233.418 123.797 233.894 123.933 234.778H125.718C125.548 233.044 124.239 232.041 122.131 232.041C120.125 232.041 118.714 233.095 118.714 234.659C118.714 236.223 119.751 236.903 121.876 237.26C123.542 237.566 124.035 237.906 124.035 238.603C124.035 239.385 123.321 239.81 122.267 239.81C121.111 239.81 120.363 239.317 120.21 238.28H118.408C118.578 240.15 119.989 241.221 122.25 241.221Z" fill="black"/>
<path d="M227.936 246V242.678H231.412V241.611H227.936V239.257H231.775V238.19H226.66V246H227.936ZM234.18 237.86H232.915V239.51H234.18V237.86ZM232.937 240.335V246H234.147V240.335H232.937ZM236.784 246V242.832C236.784 241.82 237.345 241.204 238.181 241.204C239.006 241.204 239.347 241.721 239.347 242.645V246H240.546V242.348C240.546 241.061 239.963 240.203 238.588 240.203C237.675 240.203 237.081 240.676 236.784 241.237L236.74 240.335H235.574V246H236.784ZM244.161 246.143C245.129 246.143 245.767 245.593 246.042 245.054L246.075 246H247.197V237.86H245.987V241.16C245.657 240.632 245.041 240.203 244.139 240.203C242.643 240.203 241.719 241.402 241.719 243.085V243.25C241.719 244.944 242.676 246.143 244.161 246.143ZM244.469 245.164C243.49 245.164 242.951 244.46 242.951 243.25V243.085C242.951 241.864 243.501 241.16 244.469 241.16C245.47 241.16 246.031 241.864 246.031 243.085V243.25C246.031 244.471 245.481 245.164 244.469 245.164ZM253.461 246.143C255.166 246.143 256.266 244.977 256.266 243.25V243.085C256.266 241.358 255.166 240.203 253.461 240.203C251.767 240.203 250.667 241.358 250.667 243.085V243.25C250.667 244.977 251.767 246.143 253.461 246.143ZM253.461 245.164C252.438 245.164 251.899 244.471 251.899 243.25V243.085C251.899 241.864 252.438 241.182 253.461 241.182C254.495 241.182 255.034 241.864 255.034 243.085V243.25C255.034 244.471 254.495 245.164 253.461 245.164ZM259.348 246.143C260.162 246.143 260.767 245.692 261.097 245.142L261.119 246H262.296V240.335H261.075V243.481C261.075 244.493 260.58 245.131 259.744 245.131C258.93 245.131 258.611 244.614 258.611 243.745V240.335H257.39V243.976C257.39 245.307 258.028 246.143 259.348 246.143ZM264.933 246V243.118C264.933 241.996 265.549 241.413 266.572 241.413C266.704 241.413 266.836 241.424 266.946 241.435V240.258C266.847 240.236 266.726 240.225 266.638 240.225C265.824 240.225 265.23 240.709 264.922 241.435L264.889 240.335H263.723V246H264.933ZM271.442 246V242.865C271.442 241.798 271.948 241.204 272.762 241.204C273.51 241.204 273.84 241.677 273.84 242.601V246H275.05V242.854C275.05 241.809 275.523 241.204 276.337 241.204C277.085 241.204 277.426 241.655 277.426 242.59V246H278.636V242.348C278.636 241.039 278.042 240.203 276.744 240.203C275.908 240.203 275.27 240.61 274.874 241.303C274.61 240.588 274.027 240.203 273.18 240.203C272.289 240.203 271.717 240.676 271.431 241.215L271.398 240.335H270.232V246H271.442ZM282.608 246.143C284.313 246.143 285.413 244.977 285.413 243.25V243.085C285.413 241.358 284.313 240.203 282.608 240.203C280.914 240.203 279.814 241.358 279.814 243.085V243.25C279.814 244.977 280.914 246.143 282.608 246.143ZM282.608 245.164C281.585 245.164 281.046 244.471 281.046 243.25V243.085C281.046 241.864 281.585 241.182 282.608 241.182C283.642 241.182 284.181 241.864 284.181 243.085V243.25C284.181 244.471 283.642 245.164 282.608 245.164ZM287.835 246V243.118C287.835 241.996 288.451 241.413 289.474 241.413C289.606 241.413 289.738 241.424 289.848 241.435V240.258C289.749 240.236 289.628 240.225 289.54 240.225C288.726 240.225 288.132 240.709 287.824 241.435L287.791 240.335H286.625V246H287.835ZM293.265 246.143C294.684 246.143 295.63 245.417 295.905 244.229H294.695C294.53 244.801 294.057 245.175 293.265 245.175C292.308 245.175 291.758 244.57 291.703 243.437H295.938C296.026 241.501 295.124 240.203 293.265 240.203C291.527 240.203 290.46 241.369 290.46 243.085V243.25C290.46 244.966 291.505 246.143 293.265 246.143ZM291.725 242.568C291.857 241.644 292.374 241.16 293.254 241.16C294.145 241.16 294.607 241.688 294.695 242.568H291.725Z" fill="black"/>
<path d="M191.5 203L191.265 202.559L191.5 203ZM223.234 221.423C223.468 221.57 223.777 221.5 223.923 221.266L226.317 217.455C226.464 217.222 226.393 216.913 226.159 216.766C225.926 216.619 225.617 216.69 225.47 216.924L223.343 220.311L219.955 218.183C219.721 218.036 219.413 218.107 219.266 218.341C219.119 218.574 219.19 218.883 219.423 219.03L223.234 221.423ZM165 219.5C165.297 219.902 165.297 219.902 165.297 219.902C165.297 219.902 165.297 219.902 165.298 219.902C165.298 219.901 165.298 219.901 165.299 219.901C165.3 219.9 165.302 219.898 165.305 219.896C165.31 219.892 165.319 219.886 165.33 219.878C165.351 219.862 165.384 219.838 165.428 219.806C165.515 219.742 165.645 219.648 165.816 219.524C166.158 219.278 166.664 218.916 167.319 218.456C168.627 217.537 170.53 216.227 172.9 214.668C177.641 211.548 184.252 207.432 191.735 203.441L191.265 202.559C183.748 206.568 177.109 210.701 172.35 213.832C169.97 215.398 168.06 216.713 166.744 217.638C166.086 218.1 165.576 218.464 165.231 218.713C165.058 218.838 164.927 218.934 164.838 218.999C164.794 219.031 164.76 219.056 164.737 219.072C164.726 219.081 164.718 219.087 164.712 219.091C164.709 219.093 164.707 219.095 164.705 219.096C164.704 219.097 164.704 219.097 164.703 219.097C164.703 219.097 164.703 219.097 164.703 219.098C164.703 219.098 164.703 219.098 165 219.5ZM191.735 203.441C197.867 200.171 202.846 199.675 206.864 200.703C210.89 201.734 214.028 204.314 216.431 207.339C218.835 210.364 220.482 213.807 221.53 216.504C222.053 217.851 222.424 219.006 222.665 219.824C222.785 220.233 222.873 220.557 222.93 220.777C222.958 220.888 222.979 220.972 222.993 221.029C223 221.057 223.005 221.078 223.008 221.092C223.01 221.099 223.011 221.104 223.012 221.107C223.012 221.109 223.012 221.11 223.012 221.111C223.012 221.111 223.013 221.111 223.013 221.111C223.013 221.112 223.013 221.111 223.5 221C223.987 220.889 223.987 220.888 223.987 220.888C223.987 220.888 223.987 220.887 223.987 220.887C223.987 220.885 223.986 220.884 223.986 220.881C223.985 220.877 223.983 220.871 223.981 220.863C223.978 220.847 223.972 220.823 223.965 220.793C223.95 220.732 223.928 220.642 223.898 220.527C223.838 220.296 223.748 219.962 223.624 219.542C223.377 218.702 222.997 217.519 222.462 216.142C221.394 213.392 219.703 209.849 217.214 206.717C214.725 203.584 211.416 200.836 207.112 199.734C202.799 198.631 197.563 199.199 191.265 202.559L191.735 203.441Z" fill="white"/>
<rect x="2.5" y="2.5" width="335" height="275" stroke="#0084FF" stroke-width="5"/>
<defs>
<filter id="filter0_i_3945_11792" x="25" y="101.882" width="290" height="32.5491" filterUnits="userSpaceOnUse" color-interpolation-filters="sRGB">
<feFlood flood-opacity="0" result="BackgroundImageFix"/>
<feBlend mode="normal" in="SourceGraphic" in2="BackgroundImageFix" result="shape"/>
<feColorMatrix in="SourceAlpha" type="matrix" values="0 0 0 0 0 0 0 0 0 0 0 0 0 0 0 0 0 0 127 0" result="hardAlpha"/>
<feOffset dy="4"/>
<feGaussianBlur stdDeviation="2"/>
<feComposite in2="hardAlpha" operator="arithmetic" k2="-1" k3="1"/>
<feColorMatrix type="matrix" values="0 0 0 0 0 0 0 0 0 0 0 0 0 0 0 0 0 0 0.25 0"/>
<feBlend mode="normal" in2="shape" result="effect1_innerShadow_3945_11792"/>
</filter>
<clipPath id="clip0_3945_11792">
<rect width="290" height="32" fill="white" transform="translate(25 100)"/>
</clipPath>
</defs>
</svg>
