<svg width="280" height="60" viewBox="0 0 280 60" fill="none" xmlns="http://www.w3.org/2000/svg">
<g clip-path="url(#clip0_3945_11898)">
<rect width="280" height="60" fill="white"/>
<rect x="140" y="-5" width="140" height="70" fill="#0084FF"/>
<g filter="url(#filter0_i_3945_11898)">
<path d="M202.39 42.7256L171 42.7256L171 23.7569L179.375 23.7569L184.783 25.6764L205.028 26.8055L236.088 26.8055L235.099 46L227.45 46L223.559 44.8709L219.47 46L215.975 46L211.293 44.8709L204.303 44.8709L202.39 42.7256Z" fill="#1B1B1B"/>
</g>
<g filter="url(#filter1_i_3945_11898)">
<path d="M219.624 27.1487L171 27.1487L171 12.9999L183.973 12.9999L192.35 14.4316L223.71 15.2738L271.823 15.2738L270.291 29.5911L258.441 29.5911L252.414 28.7489L246.081 29.5911L240.667 29.5911L233.414 28.7489L222.586 28.7489L219.624 27.1487Z" fill="#1B1B1B"/>
</g>
<path d="M175.898 39.801H172.79L176.291 29.1933H180.228L183.729 39.801H180.622L178.301 32.1146H178.218L175.898 39.801ZM175.318 35.616H181.16V37.7706H175.318V35.616Z" fill="white"/>
<path d="M187.651 29.1933V39.801H184.792V29.1933H187.651Z" fill="white"/>
<path d="M191.967 29.1933V39.801H189.108V29.1933H191.967Z" fill="white"/>
<path d="M193.424 39.801V31.8452H196.283V39.801H193.424ZM194.854 31.0165C194.467 31.0165 194.135 30.8887 193.859 30.6332C193.583 30.3777 193.445 30.0704 193.445 29.7113C193.445 29.3521 193.583 29.0448 193.859 28.7893C194.135 28.5338 194.467 28.406 194.854 28.406C195.244 28.406 195.575 28.5338 195.848 28.7893C196.124 29.0448 196.263 29.3521 196.263 29.7113C196.263 30.0704 196.124 30.3777 195.848 30.6332C195.575 30.8887 195.244 31.0165 194.854 31.0165Z" fill="white"/>
<path d="M199.957 39.9253C199.449 39.9253 199 39.8425 198.61 39.6767C198.223 39.5075 197.92 39.252 197.699 38.9101C197.478 38.5683 197.367 38.1332 197.367 37.6049C197.367 37.1698 197.441 36.7986 197.59 36.4913C197.738 36.1805 197.945 35.9267 198.211 35.7299C198.477 35.5331 198.786 35.3829 199.138 35.2793C199.494 35.1757 199.877 35.1084 200.288 35.0773C200.734 35.0427 201.091 35.0013 201.36 34.953C201.633 34.9012 201.83 34.8304 201.951 34.7406C202.072 34.6474 202.132 34.5248 202.132 34.3729V34.3521C202.132 34.145 202.053 33.9861 201.894 33.8756C201.735 33.7651 201.531 33.7099 201.283 33.7099C201.01 33.7099 200.787 33.7703 200.615 33.8912C200.445 34.0086 200.344 34.1898 200.309 34.435H197.678C197.712 33.9516 197.866 33.5061 198.139 33.0987C198.415 32.6878 198.817 32.3597 199.346 32.1146C199.874 31.866 200.533 31.7416 201.324 31.7416C201.894 31.7416 202.405 31.809 202.857 31.9436C203.31 32.0749 203.695 32.2596 204.012 32.4979C204.33 32.7327 204.572 33.0089 204.738 33.3266C204.907 33.6408 204.991 33.9827 204.991 34.3521V39.801H202.319V38.6822H202.257C202.098 38.9792 201.904 39.2192 201.676 39.4022C201.452 39.5852 201.195 39.7182 200.905 39.801C200.618 39.8839 200.302 39.9253 199.957 39.9253ZM200.889 38.1229C201.107 38.1229 201.31 38.078 201.5 37.9882C201.694 37.8984 201.851 37.7689 201.972 37.5997C202.093 37.4305 202.153 37.2251 202.153 36.9834V36.3204C202.077 36.3514 201.996 36.3808 201.91 36.4084C201.827 36.436 201.737 36.4619 201.64 36.4861C201.547 36.5103 201.447 36.5327 201.34 36.5535C201.236 36.5742 201.127 36.5932 201.013 36.6104C200.792 36.645 200.611 36.7019 200.47 36.7814C200.331 36.8573 200.228 36.9523 200.159 37.0662C200.093 37.1767 200.06 37.301 200.06 37.4392C200.06 37.6601 200.138 37.8293 200.293 37.9468C200.449 38.0642 200.647 38.1229 200.889 38.1229Z" fill="white"/>
<path d="M209.217 35.3259V39.801H206.357V31.8452H209.072V33.3577H209.154C209.327 32.8535 209.631 32.4581 210.066 32.1715C210.505 31.8849 211.016 31.7416 211.599 31.7416C212.162 31.7416 212.651 31.8711 213.065 32.1301C213.483 32.3856 213.806 32.7378 214.034 33.1867C214.265 33.6356 214.379 34.1484 214.375 34.7251V39.801H211.516V35.3259C211.52 34.9322 211.42 34.6232 211.216 34.3988C211.016 34.1743 210.736 34.0621 210.377 34.0621C210.142 34.0621 209.937 34.1139 209.76 34.2175C209.588 34.3176 209.455 34.4626 209.362 34.6526C209.268 34.839 209.22 35.0635 209.217 35.3259Z" fill="white"/>
<path d="M219.62 39.9461C218.756 39.9461 218.018 39.7751 217.403 39.4333C216.788 39.088 216.317 38.608 215.989 37.9934C215.661 37.3753 215.497 36.6588 215.497 35.8439C215.497 35.0289 215.661 34.3142 215.989 33.6995C216.317 33.0814 216.788 32.6014 217.403 32.2596C218.018 31.9143 218.756 31.7416 219.62 31.7416C220.4 31.7416 221.075 31.8832 221.645 32.1664C222.218 32.4461 222.662 32.8432 222.976 33.3577C223.29 33.8687 223.449 34.4695 223.453 35.1602H220.801C220.763 34.7423 220.642 34.4247 220.438 34.2071C220.238 33.9861 219.979 33.8756 219.661 33.8756C219.413 33.8756 219.195 33.9481 219.009 34.0932C218.822 34.2347 218.677 34.4505 218.573 34.7406C218.47 35.0272 218.418 35.3881 218.418 35.8231C218.418 36.2582 218.47 36.6208 218.573 36.9108C218.677 37.1974 218.822 37.4133 219.009 37.5583C219.195 37.6999 219.413 37.7706 219.661 37.7706C219.872 37.7706 220.058 37.7223 220.221 37.6256C220.383 37.5255 220.514 37.3805 220.614 37.1905C220.718 36.9972 220.78 36.7624 220.801 36.4861H223.453C223.442 37.1871 223.282 37.7983 222.971 38.3197C222.66 38.8376 222.22 39.2382 221.65 39.5213C221.084 39.8045 220.407 39.9461 219.62 39.9461Z" fill="white"/>
<path d="M228.444 39.9461C227.595 39.9461 226.863 39.7838 226.248 39.4592C225.637 39.1311 225.166 38.6615 224.834 38.0503C224.506 37.4357 224.342 36.7002 224.342 35.8439C224.342 35.022 224.508 34.3038 224.839 33.6892C225.171 33.0745 225.639 32.5963 226.243 32.2544C226.847 31.9126 227.56 31.7416 228.382 31.7416C228.983 31.7416 229.527 31.8349 230.014 32.0213C230.501 32.2078 230.917 32.4789 231.262 32.8345C231.607 33.1867 231.873 33.6149 232.06 34.1191C232.246 34.6232 232.339 35.1912 232.339 35.8231V36.4861H225.233V34.9115H229.708C229.705 34.6836 229.646 34.4834 229.532 34.3107C229.422 34.1346 229.271 33.9982 229.081 33.9015C228.895 33.8014 228.683 33.7513 228.444 33.7513C228.213 33.7513 228.001 33.8014 227.807 33.9015C227.614 33.9982 227.459 34.1329 227.341 34.3055C227.227 34.4782 227.167 34.6802 227.16 34.9115V36.6104C227.16 36.866 227.213 37.0939 227.32 37.2941C227.427 37.4944 227.581 37.6515 227.781 37.7655C227.982 37.8794 228.223 37.9364 228.507 37.9364C228.703 37.9364 228.883 37.9088 229.045 37.8535C229.211 37.7983 229.353 37.7189 229.47 37.6153C229.587 37.5082 229.674 37.3805 229.729 37.232H232.339C232.25 37.7845 232.037 38.2644 231.702 38.6719C231.367 39.0759 230.924 39.3901 230.371 39.6146C229.822 39.8356 229.18 39.9461 228.444 39.9461Z" fill="white"/>
<path d="M176.495 26.3093H172.413V15.7016H176.453C177.544 15.7016 178.487 15.914 179.281 16.3387C180.079 16.76 180.693 17.3677 181.125 18.1619C181.56 18.9526 181.778 19.9005 181.778 21.0055C181.778 22.1104 181.562 23.06 181.13 23.8542C180.699 24.645 180.087 25.2527 179.297 25.6774C178.506 26.0987 177.572 26.3093 176.495 26.3093ZM175.293 23.8646H176.391C176.916 23.8646 177.363 23.78 177.732 23.6108C178.105 23.4416 178.389 23.1498 178.582 22.7354C178.779 22.3211 178.877 21.7444 178.877 21.0055C178.877 20.2665 178.777 19.6899 178.577 19.2755C178.38 18.8611 178.09 18.5693 177.707 18.4001C177.327 18.2309 176.861 18.1464 176.308 18.1464H175.293V23.8646Z" fill="white"/>
<path d="M186.964 26.4544C186.114 26.4544 185.382 26.2921 184.768 25.9675C184.156 25.6394 183.685 25.1698 183.354 24.5586C183.026 23.944 182.862 23.2085 182.862 22.3522C182.862 21.5303 183.027 20.8121 183.359 20.1975C183.69 19.5828 184.158 19.1046 184.762 18.7627C185.367 18.4209 186.08 18.2499 186.902 18.2499C187.502 18.2499 188.046 18.3432 188.533 18.5296C189.02 18.7161 189.436 18.9872 189.781 19.3428C190.127 19.695 190.393 20.1232 190.579 20.6274C190.766 21.1315 190.859 21.6995 190.859 22.3314V22.9944H183.752V21.4198H188.228C188.224 21.1919 188.165 20.9917 188.051 20.819C187.941 20.6429 187.791 20.5065 187.601 20.4098C187.414 20.3097 187.202 20.2596 186.964 20.2596C186.732 20.2596 186.52 20.3097 186.327 20.4098C186.133 20.5065 185.978 20.6412 185.861 20.8138C185.747 20.9865 185.686 21.1885 185.679 21.4198V23.1187C185.679 23.3743 185.733 23.6022 185.84 23.8024C185.947 24.0027 186.101 24.1598 186.301 24.2738C186.501 24.3877 186.743 24.4447 187.026 24.4447C187.223 24.4447 187.402 24.4171 187.565 24.3618C187.73 24.3066 187.872 24.2272 187.989 24.1236C188.107 24.0165 188.193 23.8888 188.248 23.7403H190.859C190.769 24.2928 190.557 24.7727 190.222 25.1802C189.887 25.5842 189.443 25.8984 188.891 26.1229C188.342 26.3439 187.699 26.4544 186.964 26.4544Z" fill="white"/>
<path d="M191.984 26.3093V15.7016H199.443V18.022H194.864V19.8452H198.987V22.1657H194.864V26.3093H191.984Z" fill="white"/>
<path d="M200.543 26.3093V18.3535H203.402V26.3093H200.543ZM201.973 17.5248C201.586 17.5248 201.255 17.397 200.978 17.1415C200.702 16.886 200.564 16.5787 200.564 16.2196C200.564 15.8604 200.702 15.5531 200.978 15.2976C201.255 15.0421 201.586 14.9143 201.973 14.9143C202.363 14.9143 202.695 15.0421 202.967 15.2976C203.244 15.5531 203.382 15.8604 203.382 16.2196C203.382 16.5787 203.244 16.886 202.967 17.1415C202.695 17.397 202.363 17.5248 201.973 17.5248Z" fill="white"/>
<path d="M213.442 19.0165C213.414 18.6712 213.285 18.4019 213.053 18.2085C212.825 18.0151 212.478 17.9184 212.012 17.9184C211.715 17.9184 211.472 17.9547 211.282 18.0272C211.095 18.0963 210.957 18.1912 210.867 18.3121C210.778 18.433 210.731 18.5711 210.728 18.7265C210.721 18.8542 210.743 18.9699 210.795 19.0735C210.85 19.1736 210.936 19.2651 211.054 19.348C211.171 19.4274 211.321 19.4999 211.505 19.5655C211.688 19.6312 211.905 19.6899 212.157 19.7417L213.027 19.9281C213.614 20.0524 214.117 20.2164 214.535 20.4202C214.952 20.6239 215.294 20.8639 215.56 21.1401C215.826 21.4129 216.021 21.7202 216.145 22.0621C216.273 22.4039 216.339 22.7769 216.342 23.1809C216.339 23.8784 216.164 24.4689 215.819 24.9523C215.474 25.4357 214.98 25.8035 214.338 26.0555C213.699 26.3076 212.931 26.4336 212.033 26.4336C211.111 26.4336 210.306 26.2972 209.619 26.0245C208.935 25.7517 208.404 25.3321 208.024 24.7658C207.647 24.1961 207.458 23.4675 207.454 22.5801H210.189C210.206 22.9046 210.287 23.1774 210.432 23.3984C210.577 23.6194 210.781 23.7869 211.044 23.9008C211.309 24.0148 211.625 24.0718 211.991 24.0718C212.299 24.0718 212.556 24.0338 212.763 23.9578C212.97 23.8818 213.127 23.7765 213.234 23.6419C213.342 23.5072 213.397 23.3535 213.4 23.1809C213.397 23.0186 213.343 22.877 213.24 22.7562C213.14 22.6318 212.974 22.5213 212.742 22.4247C212.511 22.3245 212.199 22.2313 211.805 22.145L210.748 21.9171C209.809 21.7133 209.068 21.3732 208.526 20.8967C207.988 20.4167 207.72 19.7624 207.723 18.9336C207.72 18.2603 207.9 17.6716 208.262 17.1674C208.628 16.6598 209.134 16.2644 209.78 15.9813C210.429 15.6981 211.173 15.5566 212.012 15.5566C212.868 15.5566 213.609 15.6999 214.234 15.9865C214.859 16.2731 215.341 16.6771 215.679 17.1985C216.021 17.7164 216.194 18.3225 216.197 19.0165H213.442Z" fill="white"/>
<path d="M221.291 26.4544C220.442 26.4544 219.71 26.2921 219.095 25.9675C218.484 25.6394 218.013 25.1698 217.681 24.5586C217.353 23.944 217.189 23.2085 217.189 22.3522C217.189 21.5303 217.355 20.8121 217.686 20.1975C218.018 19.5828 218.486 19.1046 219.09 18.7627C219.694 18.4209 220.407 18.2499 221.229 18.2499C221.83 18.2499 222.374 18.3432 222.861 18.5296C223.348 18.7161 223.764 18.9872 224.109 19.3428C224.454 19.695 224.72 20.1232 224.907 20.6274C225.093 21.1315 225.186 21.6995 225.186 22.3314V22.9944H218.08V21.4198H222.555C222.552 21.1919 222.493 20.9917 222.379 20.819C222.268 20.6429 222.118 20.5065 221.928 20.4098C221.742 20.3097 221.53 20.2596 221.291 20.2596C221.06 20.2596 220.848 20.3097 220.654 20.4098C220.461 20.5065 220.305 20.6412 220.188 20.8138C220.074 20.9865 220.014 21.1885 220.007 21.4198V23.1187C220.007 23.3743 220.06 23.6022 220.167 23.8024C220.274 24.0027 220.428 24.1598 220.628 24.2738C220.829 24.3877 221.07 24.4447 221.353 24.4447C221.55 24.4447 221.73 24.4171 221.892 24.3618C222.058 24.3066 222.199 24.2272 222.317 24.1236C222.434 24.0165 222.521 23.8888 222.576 23.7403H225.186C225.097 24.2928 224.884 24.7727 224.549 25.1802C224.214 25.5842 223.771 25.8984 223.218 26.1229C222.669 26.3439 222.027 26.4544 221.291 26.4544Z" fill="white"/>
<path d="M230.186 26.4544C229.323 26.4544 228.584 26.2834 227.969 25.9416C227.354 25.5963 226.883 25.1163 226.555 24.5017C226.227 23.8836 226.063 23.1671 226.063 22.3522C226.063 21.5372 226.227 20.8225 226.555 20.2078C226.883 19.5897 227.354 19.1097 227.969 18.7679C228.584 18.4226 229.323 18.2499 230.186 18.2499C230.966 18.2499 231.641 18.3915 232.211 18.6747C232.784 18.9544 233.228 19.3515 233.542 19.866C233.856 20.377 234.015 20.9778 234.019 21.6685H231.367C231.329 21.2506 231.208 20.933 231.004 20.7154C230.804 20.4944 230.545 20.3839 230.227 20.3839C229.979 20.3839 229.761 20.4564 229.575 20.6015C229.388 20.743 229.243 20.9588 229.14 21.2489C229.036 21.5355 228.984 21.8963 228.984 22.3314C228.984 22.7665 229.036 23.1291 229.14 23.4191C229.243 23.7057 229.388 23.9216 229.575 24.0666C229.761 24.2082 229.979 24.2789 230.227 24.2789C230.438 24.2789 230.624 24.2306 230.787 24.1339C230.949 24.0338 231.08 23.8888 231.18 23.6988C231.284 23.5055 231.346 23.2707 231.367 22.9944H234.019C234.008 23.6954 233.848 24.3066 233.537 24.828C233.226 25.3459 232.786 25.7465 232.216 26.0296C231.65 26.3128 230.973 26.4544 230.186 26.4544Z" fill="white"/>
<path d="M240.357 22.8287V18.3535H243.216V26.3093H240.502V24.7969H240.419C240.247 25.3045 239.945 25.7016 239.513 25.9882C239.081 26.2713 238.569 26.4129 237.975 26.4129C237.419 26.4129 236.932 26.2852 236.514 26.0296C236.1 25.7741 235.777 25.4219 235.545 24.973C235.318 24.5241 235.202 24.0096 235.198 23.4295V18.3535H238.058V22.8287C238.061 23.2223 238.161 23.5314 238.358 23.7558C238.558 23.9803 238.838 24.0925 239.197 24.0925C239.435 24.0925 239.641 24.0424 239.813 23.9423C239.989 23.8387 240.124 23.6937 240.217 23.5072C240.314 23.3173 240.361 23.0911 240.357 22.8287Z" fill="white"/>
<path d="M244.671 26.3093V18.3535H247.447V19.866H247.53C247.675 19.3066 247.904 18.8974 248.219 18.6384C248.536 18.3794 248.907 18.2499 249.332 18.2499C249.456 18.2499 249.579 18.2603 249.7 18.281C249.824 18.2983 249.943 18.3242 250.057 18.3587V20.7983C249.916 20.7499 249.741 20.7137 249.534 20.6895C249.327 20.6653 249.149 20.6533 249.001 20.6533C248.721 20.6533 248.469 20.7171 248.244 20.8449C248.023 20.9692 247.849 21.1453 247.721 21.3732C247.594 21.5977 247.53 21.8618 247.53 22.1657V26.3093H244.671Z" fill="white"/>
<path d="M250.995 26.3093V18.3535H253.854V26.3093H250.995ZM252.424 17.5248C252.038 17.5248 251.706 17.397 251.43 17.1415C251.154 16.886 251.015 16.5787 251.015 16.2196C251.015 15.8604 251.154 15.5531 251.43 15.2976C251.706 15.0421 252.038 14.9143 252.424 14.9143C252.814 14.9143 253.146 15.0421 253.419 15.2976C253.695 15.5531 253.833 15.8604 253.833 16.2196C253.833 16.5787 253.695 16.886 253.419 17.1415C253.146 17.397 252.814 17.5248 252.424 17.5248Z" fill="white"/>
<path d="M260.055 18.3535V20.4254H254.813V18.3535H260.055ZM255.829 16.4475H258.688V23.7506C258.688 23.8611 258.707 23.9544 258.745 24.0303C258.783 24.1028 258.841 24.1581 258.921 24.1961C259 24.2306 259.102 24.2479 259.226 24.2479C259.313 24.2479 259.413 24.2375 259.527 24.2168C259.644 24.1961 259.731 24.1788 259.786 24.165L260.2 26.1747C260.072 26.2126 259.889 26.2593 259.651 26.3145C259.416 26.3698 259.137 26.406 258.812 26.4233C258.156 26.4578 257.605 26.3905 257.16 26.2213C256.714 26.0486 256.379 25.7776 256.155 25.4081C255.93 25.0386 255.822 24.5759 255.829 24.02V16.4475Z" fill="white"/>
<path d="M262.962 29.2928C262.634 29.2928 262.322 29.2669 262.025 29.2151C261.728 29.1667 261.467 29.0994 261.243 29.0131L261.864 26.9827C262.099 27.0655 262.313 27.1191 262.506 27.1432C262.703 27.1674 262.871 27.1536 263.009 27.1018C263.15 27.05 263.252 26.9516 263.314 26.8066L263.376 26.6615L260.58 18.3535H263.563L264.847 23.8646H264.93L266.236 18.3535H269.24L266.339 26.9723C266.194 27.4109 265.984 27.8045 265.707 28.1533C265.435 28.5055 265.075 28.7834 264.63 28.9872C264.184 29.1909 263.629 29.2928 262.962 29.2928Z" fill="white"/>
<ellipse cx="201.995" cy="16.1906" rx="1.45856" ry="1.3674" fill="#0084FF"/>
<ellipse cx="194.884" cy="29.6823" rx="1.45856" ry="1.3674" fill="#0084FF"/>
<ellipse cx="252.498" cy="16.1906" rx="1.45856" ry="1.3674" fill="#0084FF"/>
<circle cx="140" cy="30" r="23" fill="#262626"/>
<path d="M140 7C146.1 7 151.95 9.4232 156.263 13.7365C160.577 18.0499 163 23.9 163 30C163 36.1 160.577 41.9501 156.263 46.2635C151.95 50.5768 146.1 53 140 53L140 30L140 7Z" fill="white"/>
<circle cx="139.77" cy="30.2301" r="10.35" fill="#0084FF"/>
<path d="M15.208 19C17.168 19 18.582 17.992 18.582 16.228V16.06C18.582 14.982 17.938 14.086 16.86 13.75C17.686 13.372 18.134 12.616 18.134 11.762V11.608C18.134 9.858 16.86 9.06 14.9 9.06H10.84V19H15.208ZM12.436 10.404H14.774C15.894 10.404 16.496 10.768 16.496 11.734V11.888C16.496 12.756 15.978 13.26 14.816 13.26H12.436V10.404ZM12.436 14.604H15.152C16.314 14.604 16.93 15.094 16.93 16.018V16.2C16.93 17.166 16.202 17.656 15.082 17.656H12.436V14.604ZM23.3088 19.182C25.1148 19.182 26.3187 18.258 26.6688 16.746H25.1287C24.9188 17.474 24.3167 17.95 23.3088 17.95C22.0907 17.95 21.3907 17.18 21.3207 15.738H26.7108C26.8227 13.274 25.6748 11.622 23.3088 11.622C21.0967 11.622 19.7387 13.106 19.7387 15.29V15.5C19.7387 17.684 21.0687 19.182 23.3088 19.182ZM21.3487 14.632C21.5167 13.456 22.1747 12.84 23.2947 12.84C24.4287 12.84 25.0168 13.512 25.1287 14.632H21.3487ZM32.6738 21.38V17.908C33.0658 18.594 33.8638 19.182 34.9838 19.182C36.8878 19.182 38.1058 17.656 38.1058 15.5V15.29C38.1058 13.134 36.9158 11.622 35.0258 11.622C33.7938 11.622 32.9538 12.294 32.6038 12.98L32.5618 11.79H31.1198V21.38H32.6738ZM34.6058 17.936C33.3178 17.936 32.6178 17.054 32.6178 15.5V15.29C32.6178 13.736 33.3178 12.84 34.6058 12.84C35.8378 12.84 36.5378 13.736 36.5378 15.29V15.5C36.5378 17.054 35.8378 17.936 34.6058 17.936ZM41.7166 19.182C42.7526 19.182 43.6346 18.692 44.0826 17.88L44.1386 19H45.5526V14.1C45.5526 12.602 44.5026 11.622 42.6406 11.622C40.8766 11.622 39.7006 12.476 39.5746 13.96H41.0446C41.1146 13.232 41.7166 12.826 42.6126 12.826C43.5226 12.826 44.0686 13.246 44.0686 14.044V14.562L41.2266 14.982C39.9946 15.15 39.2946 15.906 39.2946 17.054C39.2946 18.286 40.2326 19.182 41.7166 19.182ZM42.0666 17.964C41.2546 17.964 40.7926 17.586 40.7926 16.984C40.7926 16.424 41.1006 16.116 41.7586 16.018L44.0686 15.696V16.354C44.0686 17.292 43.1446 17.964 42.0666 17.964ZM48.8741 19V15.332C48.8741 13.904 49.6581 13.162 50.9601 13.162C51.1281 13.162 51.2961 13.176 51.4361 13.19V11.692C51.3101 11.664 51.1561 11.65 51.0441 11.65C50.0081 11.65 49.2521 12.266 48.8601 13.19L48.8181 11.79H47.3341V19H48.8741ZM56.2191 19.182C56.5831 19.182 57.0731 19.112 57.3951 19.014V17.782C57.1851 17.852 56.8211 17.922 56.5131 17.922C55.6591 17.922 55.3931 17.6 55.3931 16.886V12.952H57.3531V11.79H55.3931V9.536H53.8531V11.79H52.4531V12.952H53.8531V17.054C53.8531 18.454 54.6371 19.182 56.2191 19.182ZM14.046 34.182C16.216 34.182 17.616 32.698 17.616 30.5V30.29C17.616 28.092 16.216 26.622 14.046 26.622C11.89 26.622 10.49 28.092 10.49 30.29V30.5C10.49 32.698 11.89 34.182 14.046 34.182ZM14.046 32.936C12.744 32.936 12.058 32.054 12.058 30.5V30.29C12.058 28.736 12.744 27.868 14.046 27.868C15.362 27.868 16.048 28.736 16.048 30.29V30.5C16.048 32.054 15.362 32.936 14.046 32.936ZM21.29 34V27.952H23.25V26.79H21.29V25.754C21.29 25.04 21.556 24.704 22.41 24.704C22.718 24.704 23.082 24.788 23.292 24.844V23.626C22.97 23.542 22.48 23.458 22.116 23.458C20.534 23.458 19.75 24.186 19.75 25.586V26.79H18.35V27.952H19.75V34H21.29ZM29.5284 34.182C30.5644 34.182 31.4464 33.692 31.8944 32.88L31.9504 34H33.3644V29.1C33.3644 27.602 32.3144 26.622 30.4524 26.622C28.6884 26.622 27.5124 27.476 27.3864 28.96H28.8564C28.9264 28.232 29.5284 27.826 30.4244 27.826C31.3344 27.826 31.8804 28.246 31.8804 29.044V29.562L29.0384 29.982C27.8064 30.15 27.1064 30.906 27.1064 32.054C27.1064 33.286 28.0444 34.182 29.5284 34.182ZM29.8784 32.964C29.0664 32.964 28.6044 32.586 28.6044 31.984C28.6044 31.424 28.9124 31.116 29.5704 31.018L31.8804 30.696V31.354C31.8804 32.292 30.9564 32.964 29.8784 32.964ZM36.6859 34V29.968C36.6859 28.68 37.3999 27.896 38.4639 27.896C39.5139 27.896 39.9479 28.554 39.9479 29.73V34H41.4739V29.352C41.4739 27.714 40.7319 26.622 38.9819 26.622C37.8199 26.622 37.0639 27.224 36.6859 27.938L36.6299 26.79H35.1459V34H36.6859ZM48.2238 34.182C49.2598 34.182 50.1418 33.692 50.5898 32.88L50.6458 34H52.0598V29.1C52.0598 27.602 51.0098 26.622 49.1478 26.622C47.3838 26.622 46.2078 27.476 46.0818 28.96H47.5518C47.6218 28.232 48.2238 27.826 49.1198 27.826C50.0298 27.826 50.5758 28.246 50.5758 29.044V29.562L47.7338 29.982C46.5018 30.15 45.8018 30.906 45.8018 32.054C45.8018 33.286 46.7398 34.182 48.2238 34.182ZM48.5738 32.964C47.7618 32.964 47.2998 32.586 47.2998 31.984C47.2998 31.424 47.6078 31.116 48.2658 31.018L50.5758 30.696V31.354C50.5758 32.292 49.6518 32.964 48.5738 32.964ZM53.8413 23.64V34H55.3813V23.64H53.8413ZM57.2112 23.64V34H58.7512V23.64H57.2112ZM62.1493 23.64H60.5393V25.74H62.1493V23.64ZM60.5673 26.79V34H62.1073V26.79H60.5673ZM66.0235 34.182C67.0595 34.182 67.9415 33.692 68.3895 32.88L68.4455 34H69.8595V29.1C69.8595 27.602 68.8095 26.622 66.9475 26.622C65.1835 26.622 64.0075 27.476 63.8815 28.96H65.3515C65.4215 28.232 66.0235 27.826 66.9195 27.826C67.8295 27.826 68.3755 28.246 68.3755 29.044V29.562L65.5335 29.982C64.3015 30.15 63.6015 30.906 63.6015 32.054C63.6015 33.286 64.5395 34.182 66.0235 34.182ZM66.3735 32.964C65.5615 32.964 65.0995 32.586 65.0995 31.984C65.0995 31.424 65.4075 31.116 66.0655 31.018L68.3755 30.696V31.354C68.3755 32.292 67.4515 32.964 66.3735 32.964ZM73.181 34V29.968C73.181 28.68 73.895 27.896 74.959 27.896C76.009 27.896 76.443 28.554 76.443 29.73V34H77.969V29.352C77.969 27.714 77.227 26.622 75.477 26.622C74.315 26.622 73.559 27.224 73.181 27.938L73.125 26.79H71.641V34H73.181ZM82.9333 34.182C84.7393 34.182 85.9293 33.118 86.1673 31.424H84.6413C84.4873 32.334 83.9413 32.936 82.9193 32.936C81.6733 32.936 81.0293 32.054 81.0293 30.5V30.29C81.0293 28.736 81.6733 27.868 82.9193 27.868C83.9413 27.868 84.4733 28.442 84.6273 29.352H86.1393C85.9433 27.686 84.7533 26.622 82.9473 26.622C80.7493 26.622 79.4613 28.106 79.4613 30.29V30.5C79.4613 32.684 80.7493 34.182 82.9333 34.182ZM90.8719 34.182C92.6779 34.182 93.8819 33.258 94.2319 31.746H92.6919C92.4819 32.474 91.8799 32.95 90.8719 32.95C89.6539 32.95 88.9539 32.18 88.8839 30.738H94.2739C94.3859 28.274 93.2379 26.622 90.8719 26.622C88.6599 26.622 87.3019 28.106 87.3019 30.29V30.5C87.3019 32.684 88.6319 34.182 90.8719 34.182ZM88.9119 29.632C89.0799 28.456 89.7379 27.84 90.8579 27.84C91.9919 27.84 92.5799 28.512 92.6919 29.632H88.9119ZM14.046 49.182C16.216 49.182 17.616 47.698 17.616 45.5V45.29C17.616 43.092 16.216 41.622 14.046 41.622C11.89 41.622 10.49 43.092 10.49 45.29V45.5C10.49 47.698 11.89 49.182 14.046 49.182ZM14.046 47.936C12.744 47.936 12.058 47.054 12.058 45.5V45.29C12.058 43.736 12.744 42.868 14.046 42.868C15.362 42.868 16.048 43.736 16.048 45.29V45.5C16.048 47.054 15.362 47.936 14.046 47.936ZM21.29 49V42.952H23.25V41.79H21.29V40.754C21.29 40.04 21.556 39.704 22.41 39.704C22.718 39.704 23.082 39.788 23.292 39.844V38.626C22.97 38.542 22.48 38.458 22.116 38.458C20.534 38.458 19.75 39.186 19.75 40.586V41.79H18.35V42.952H19.75V49H21.29ZM30.5784 49.182C30.9424 49.182 31.4324 49.112 31.7544 49.014V47.782C31.5444 47.852 31.1804 47.922 30.8724 47.922C30.0184 47.922 29.7524 47.6 29.7524 46.886V42.952H31.7124V41.79H29.7524V39.536H28.2124V41.79H26.8124V42.952H28.2124V47.054C28.2124 48.454 28.9964 49.182 30.5784 49.182ZM36.3301 49.182C38.5001 49.182 39.9001 47.698 39.9001 45.5V45.29C39.9001 43.092 38.5001 41.622 36.3301 41.622C34.1741 41.622 32.7741 43.092 32.7741 45.29V45.5C32.7741 47.698 34.1741 49.182 36.3301 49.182ZM36.3301 47.936C35.0281 47.936 34.3421 47.054 34.3421 45.5V45.29C34.3421 43.736 35.0281 42.868 36.3301 42.868C37.6461 42.868 38.3321 43.736 38.3321 45.29V45.5C38.3321 47.054 37.6461 47.936 36.3301 47.936ZM42.9955 51.38V47.908C43.3875 48.594 44.1855 49.182 45.3055 49.182C47.2095 49.182 48.4275 47.656 48.4275 45.5V45.29C48.4275 43.134 47.2375 41.622 45.3475 41.622C44.1155 41.622 43.2755 42.294 42.9255 42.98L42.8835 41.79H41.4415V51.38H42.9955ZM44.9275 47.936C43.6395 47.936 42.9395 47.054 42.9395 45.5V45.29C42.9395 43.736 43.6395 42.84 44.9275 42.84C46.1595 42.84 46.8595 43.736 46.8595 45.29V45.5C46.8595 47.054 46.1595 47.936 44.9275 47.936ZM54.9433 49.182C55.9793 49.182 56.8613 48.692 57.3093 47.88L57.3653 49H58.7793V44.1C58.7793 42.602 57.7293 41.622 55.8673 41.622C54.1033 41.622 52.9273 42.476 52.8013 43.96H54.2713C54.3413 43.232 54.9433 42.826 55.8393 42.826C56.7493 42.826 57.2953 43.246 57.2953 44.044V44.562L54.4533 44.982C53.2213 45.15 52.5213 45.906 52.5213 47.054C52.5213 48.286 53.4593 49.182 54.9433 49.182ZM55.2933 47.964C54.4813 47.964 54.0193 47.586 54.0193 46.984C54.0193 46.424 54.3273 46.116 54.9853 46.018L57.2953 45.696V46.354C57.2953 47.292 56.3713 47.964 55.2933 47.964ZM62.9968 49.182C64.0328 49.182 64.8028 48.608 65.2228 47.908L65.2508 49H66.7488V41.79H65.1948V45.794C65.1948 47.082 64.5648 47.894 63.5008 47.894C62.4648 47.894 62.0588 47.236 62.0588 46.13V41.79H60.5048V46.424C60.5048 48.118 61.3168 49.182 62.9968 49.182ZM71.3934 49.182C72.6254 49.182 73.4374 48.482 73.7874 47.796L73.8294 49H75.2574V38.64H73.7174V42.84C73.2974 42.168 72.5134 41.622 71.3654 41.622C69.4614 41.622 68.2854 43.148 68.2854 45.29V45.5C68.2854 47.656 69.5034 49.182 71.3934 49.182ZM71.7854 47.936C70.5394 47.936 69.8534 47.04 69.8534 45.5V45.29C69.8534 43.736 70.5534 42.84 71.7854 42.84C73.0594 42.84 73.7734 43.736 73.7734 45.29V45.5C73.7734 47.054 73.0734 47.936 71.7854 47.936ZM78.6579 38.64H77.0479V40.74H78.6579V38.64ZM77.0759 41.79V49H78.6159V41.79H77.0759ZM83.582 49.182C83.946 49.182 84.436 49.112 84.758 49.014V47.782C84.548 47.852 84.184 47.922 83.876 47.922C83.022 47.922 82.756 47.6 82.756 46.886V42.952H84.716V41.79H82.756V39.536H81.216V41.79H79.816V42.952H81.216V47.054C81.216 48.454 82 49.182 83.582 49.182ZM89.3337 49.182C91.5037 49.182 92.9037 47.698 92.9037 45.5V45.29C92.9037 43.092 91.5037 41.622 89.3337 41.622C87.1777 41.622 85.7777 43.092 85.7777 45.29V45.5C85.7777 47.698 87.1777 49.182 89.3337 49.182ZM89.3337 47.936C88.0317 47.936 87.3457 47.054 87.3457 45.5V45.29C87.3457 43.736 88.0317 42.868 89.3337 42.868C90.6497 42.868 91.3357 43.736 91.3357 45.29V45.5C91.3357 47.054 90.6497 47.936 89.3337 47.936ZM95.9852 49V45.332C95.9852 43.904 96.7692 43.162 98.0712 43.162C98.2392 43.162 98.4072 43.176 98.5472 43.19V41.692C98.4212 41.664 98.2672 41.65 98.1552 41.65C97.1192 41.65 96.3632 42.266 95.9712 43.19L95.9292 41.79H94.4452V49H95.9852ZM102.461 49.182C104.267 49.182 105.457 48.258 105.457 46.886C105.457 45.626 104.575 45.024 102.755 44.73C101.439 44.52 101.033 44.254 101.033 43.694C101.033 43.106 101.551 42.756 102.349 42.756C103.175 42.756 103.735 43.148 103.847 43.876H105.317C105.177 42.448 104.099 41.622 102.363 41.622C100.711 41.622 99.549 42.49 99.549 43.778C99.549 45.066 100.403 45.626 102.153 45.92C103.525 46.172 103.931 46.452 103.931 47.026C103.931 47.67 103.343 48.02 102.475 48.02C101.523 48.02 100.907 47.614 100.781 46.76H99.297C99.437 48.3 100.599 49.182 102.461 49.182Z" fill="black"/>
</g>
<rect x="1" y="1" width="278" height="58" stroke="#0084FF" stroke-width="2"/>
<defs>
<filter id="filter0_i_3945_11898" x="171" y="23.7568" width="65.0889" height="26.2432" filterUnits="userSpaceOnUse" color-interpolation-filters="sRGB">
<feFlood flood-opacity="0" result="BackgroundImageFix"/>
<feBlend mode="normal" in="SourceGraphic" in2="BackgroundImageFix" result="shape"/>
<feColorMatrix in="SourceAlpha" type="matrix" values="0 0 0 0 0 0 0 0 0 0 0 0 0 0 0 0 0 0 127 0" result="hardAlpha"/>
<feOffset dy="4"/>
<feGaussianBlur stdDeviation="2"/>
<feComposite in2="hardAlpha" operator="arithmetic" k2="-1" k3="1"/>
<feColorMatrix type="matrix" values="0 0 0 0 0 0 0 0 0 0 0 0 0 0 0 0 0 0 0.25 0"/>
<feBlend mode="normal" in2="shape" result="effect1_innerShadow_3945_11898"/>
</filter>
<filter id="filter1_i_3945_11898" x="171" y="13" width="100.823" height="20.5911" filterUnits="userSpaceOnUse" color-interpolation-filters="sRGB">
<feFlood flood-opacity="0" result="BackgroundImageFix"/>
<feBlend mode="normal" in="SourceGraphic" in2="BackgroundImageFix" result="shape"/>
<feColorMatrix in="SourceAlpha" type="matrix" values="0 0 0 0 0 0 0 0 0 0 0 0 0 0 0 0 0 0 127 0" result="hardAlpha"/>
<feOffset dy="4"/>
<feGaussianBlur stdDeviation="2"/>
<feComposite in2="hardAlpha" operator="arithmetic" k2="-1" k3="1"/>
<feColorMatrix type="matrix" values="0 0 0 0 0 0 0 0 0 0 0 0 0 0 0 0 0 0 0.25 0"/>
<feBlend mode="normal" in2="shape" result="effect1_innerShadow_3945_11898"/>
</filter>
<clipPath id="clip0_3945_11898">
<rect width="280" height="60" fill="white"/>
</clipPath>
</defs>
</svg>
