<svg width="160" height="40" fill="none" xmlns="http://www.w3.org/2000/svg"><path d="M33.252 10.444h13.82v-8.87h3.935V23.28H47.07v-8.87h-13.82v8.87h-3.935V1.574h3.936v8.87ZM71.986 17.861c0 .545-.096 1.136-.287 1.771a5.295 5.295 0 0 1-.939 1.756c-.424.535-.984.984-1.68 1.347-.686.364-1.524.545-2.513.545h-7.099c-.545 0-1.135-.096-1.77-.287a5.443 5.443 0 0 1-1.757-.924c-.534-.434-.983-.994-1.347-1.68-.363-.696-.545-1.539-.545-2.528 0-.545.096-1.135.288-1.77.192-.636.5-1.222.923-1.757.434-.544.994-.999 1.68-1.362.697-.363 1.54-.545 2.528-.545h7.1v3.754h-7.1c-.535 0-.948.167-1.24.5-.294.323-.44.726-.44 1.21 0 .515.167.919.5 1.212.343.282.746.423 1.21.423h7.07c.534 0 .948-.161 1.24-.484.293-.323.44-.727.44-1.21v-5.496c0-.514-.162-.923-.485-1.226-.313-.302-.711-.454-1.196-.454h-8.643V6.917h8.643c.545 0 1.13.096 1.756.288a5.107 5.107 0 0 1 1.756.939c.545.423 1 .983 1.362 1.68.364.686.545 1.524.545 2.512v5.525ZM91.165 17.755c0 .677-.086 1.287-.258 1.832a5.468 5.468 0 0 1-.68 1.423c-.284.403-.611.752-.985 1.044a5.85 5.85 0 0 1-1.18.697 6.167 6.167 0 0 1-1.242.408c-.413.08-.807.121-1.18.121H74.983v-3.935H85.61c.535 0 .939-.136 1.211-.409.273-.272.409-.666.409-1.18-.05-1.05-.58-1.575-1.59-1.575h-6.1c-.867 0-1.604-.151-2.21-.454-.605-.303-1.1-.681-1.483-1.135a4.506 4.506 0 0 1-.817-1.469 5.011 5.011 0 0 1-.242-1.468c0-.878.156-1.614.469-2.21.313-.605.706-1.095 1.18-1.468.475-.373.99-.64 1.544-.802a5.295 5.295 0 0 1 1.56-.258h9.672v3.936H79.57c-.202 0-.363.025-.485.076a.544.544 0 0 0-.257.181.505.505 0 0 0-.09.242 1.95 1.95 0 0 0-.016.243c.01.161.04.287.091.378.05.091.111.157.182.197.08.04.166.066.257.076h6.388c1.009 0 1.867.181 2.573.544.706.364 1.276.823 1.71 1.378a5.24 5.24 0 0 1 .939 1.786c.202.646.303 1.246.303 1.801ZM112.129 23.28h-3.936V12.427c0-.514-.131-.903-.393-1.165-.263-.273-.656-.409-1.181-.409H99.52V6.917h7.099c.374 0 .767.046 1.181.137.414.08.822.212 1.226.393.414.182.807.42 1.181.712.373.282.701.63.983 1.044.283.404.51.873.682 1.408.171.535.257 1.14.257 1.816V23.28Zm-14.198 0h-3.936V0h3.936v23.28ZM134.017 14.41h-12.428v-3.966h12.428v3.966Zm1.771 8.87h-14.199c-.545 0-1.14-.096-1.786-.287a5.402 5.402 0 0 1-1.801-.939c-.545-.444-1.004-1.014-1.377-1.71-.364-.707-.545-1.57-.545-2.589V3.557c0-.272.05-.53.151-.772.101-.242.237-.454.409-.636.181-.181.393-.323.635-.423.243-.101.505-.152.787-.152h17.726V5.51h-15.773v12.245c0 .515.136.909.409 1.181.272.273.671.409 1.196.409h14.168v3.935ZM157.857 6.917l-7.069 7.72 7.962 8.643h-5.419l-5.237-5.706-5.238 5.706h-5.434l7.947-8.673-7.038-7.69h5.388l4.344 4.738 4.375-4.738h5.419Z" fill="#fff"/><path d="M2.738 6.564H6.24L7.447 1.28h3.96l-1.19 5.284h4.075l1.19-5.284h3.976l-1.206 5.284H22l-.847 3.73H17.42l-.864 3.908h3.602l-.832 3.73h-3.601L14.52 23.28h-3.976l1.206-5.348H7.676L6.47 23.28H2.51l1.19-5.348H0l.896-3.73H4.53l.88-3.907H1.841l.897-3.73Zm5.769 7.638h4.074l.863-3.907H9.37l-.863 3.907Z" fill="#C2F051"/><path d="M28.94 32.2h2.11c.267 0 .537.03.81.09.273.054.517.15.73.29a1.5 1.5 0 0 1 .53.55c.14.234.21.527.21.88 0 .374-.113.7-.34.98-.227.274-.53.454-.91.54v.02c.46.054.84.234 1.14.54.307.3.46.71.46 1.23a1.774 1.774 0 0 1-.71 1.43 2.586 2.586 0 0 1-.83.39c-.327.094-.693.14-1.1.14h-2.1V32.2Zm.72 3.1h1.45c.173 0 .347-.02.52-.06.18-.04.343-.106.49-.2a1.153 1.153 0 0 0 .49-.98c0-.226-.047-.416-.14-.57a1.063 1.063 0 0 0-.36-.39c-.153-.1-.333-.17-.54-.21a2.988 2.988 0 0 0-.66-.07h-1.25v2.48Zm0 3.36H31c.26 0 .507-.023.74-.07.24-.053.447-.133.62-.24.18-.113.323-.256.43-.43.107-.18.16-.393.16-.64 0-.466-.16-.813-.48-1.04-.313-.233-.76-.35-1.34-.35h-1.47v2.77ZM37.017 38.64h3.3v.64h-4.02V32.2h.72v6.44ZM49.092 35.74c0 .54-.093 1.037-.28 1.49a3.574 3.574 0 0 1-.78 1.18 3.54 3.54 0 0 1-1.17.77c-.446.187-.933.28-1.46.28a3.822 3.822 0 0 1-1.47-.28 3.68 3.68 0 0 1-1.17-.77 3.653 3.653 0 0 1-.77-1.18 3.875 3.875 0 0 1-.28-1.49c0-.54.094-1.036.28-1.49a3.54 3.54 0 0 1 .77-1.17 3.6 3.6 0 0 1 1.17-.78c.454-.186.944-.28 1.47-.28.527 0 1.014.094 1.46.28.454.187.844.447 1.17.78.334.327.594.717.78 1.17.187.454.28.95.28 1.49Zm-.76 0c0-.413-.066-.806-.2-1.18a2.895 2.895 0 0 0-.58-.98 2.731 2.731 0 0 0-.93-.68 2.87 2.87 0 0 0-1.22-.25c-.453 0-.863.084-1.23.25-.36.167-.666.394-.92.68-.253.28-.446.607-.58.98-.133.374-.2.767-.2 1.18 0 .414.067.807.2 1.18.134.374.327.7.58.98.254.28.56.504.92.67.367.167.777.25 1.23.25.454 0 .86-.083 1.22-.25.367-.166.677-.39.93-.67.254-.28.447-.606.58-.98.134-.373.2-.766.2-1.18ZM57.548 38.14c-.12.18-.266.35-.44.51-.166.16-.363.3-.59.42-.22.12-.466.214-.74.28-.266.074-.56.11-.88.11a3.848 3.848 0 0 1-1.48-.28 3.538 3.538 0 0 1-1.17-.77 3.652 3.652 0 0 1-.77-1.18c-.18-.453-.27-.95-.27-1.49s.094-1.036.28-1.49c.187-.453.444-.843.77-1.17a3.6 3.6 0 0 1 1.17-.78c.454-.186.944-.28 1.47-.28a3.588 3.588 0 0 1 1.47.31c.22.094.42.21.6.35.18.134.33.287.45.46l-.6.44a1.72 1.72 0 0 0-.3-.34 1.897 1.897 0 0 0-.43-.3 2.688 2.688 0 0 0-.55-.21 2.365 2.365 0 0 0-.63-.08c-.46 0-.873.084-1.24.25-.36.167-.666.394-.92.68-.253.28-.446.607-.58.98a3.48 3.48 0 0 0-.2 1.18c0 .414.067.807.2 1.18.14.374.337.704.59.99.254.28.56.504.92.67.367.167.777.25 1.23.25.407 0 .794-.083 1.16-.25a2.2 2.2 0 0 0 .92-.8l.56.36ZM60.506 35.38h.01l3.37-3.18h1.03l-3.57 3.21 3.77 3.87h-1.06l-3.54-3.77h-.01v3.77h-.72V32.2h.72v3.18ZM72.78 38.14c-.12.18-.266.35-.44.51-.166.16-.362.3-.59.42-.22.12-.466.214-.74.28-.266.074-.56.11-.88.11a3.849 3.849 0 0 1-1.48-.28 3.54 3.54 0 0 1-1.17-.77 3.653 3.653 0 0 1-.77-1.18c-.18-.453-.27-.95-.27-1.49s.094-1.036.28-1.49a3.54 3.54 0 0 1 .77-1.17 3.6 3.6 0 0 1 1.17-.78c.454-.186.944-.28 1.47-.28a3.588 3.588 0 0 1 1.47.31c.22.094.42.21.6.35.18.134.33.287.45.46l-.6.44a1.713 1.713 0 0 0-.3-.34 1.895 1.895 0 0 0-.43-.3 2.688 2.688 0 0 0-.55-.21 2.363 2.363 0 0 0-.63-.08c-.46 0-.873.084-1.24.25-.36.167-.666.394-.92.68-.252.28-.446.607-.58.98-.133.374-.2.767-.2 1.18 0 .414.067.807.2 1.18.14.374.337.704.59.99.254.28.56.504.92.67.368.167.778.25 1.23.25a2.77 2.77 0 0 0 1.16-.25 2.2 2.2 0 0 0 .92-.8l.56.36ZM75.018 32.2h.72v3.07h3.86V32.2h.72v7.08h-.72v-3.35h-3.86v3.35h-.72V32.2ZM83.146 39.28h-.79l3.06-7.08h.7l3.04 7.08h-.8l-.78-1.86h-3.66l-.77 1.86Zm1.04-2.52h3.12L85.746 33l-1.56 3.76ZM91.918 39.28h-.72V32.2h.72v7.08ZM99.815 38.23h.02V32.2h.72v7.08h-.9l-4.12-6.09h-.02v6.09h-.72V32.2h.9l4.12 6.03ZM110.362 33.34a1.679 1.679 0 0 0-.59-.51c-.24-.133-.53-.2-.87-.2-.173 0-.35.027-.53.08-.18.054-.343.137-.49.25a1.253 1.253 0 0 0-.36.41c-.087.167-.13.364-.13.59 0 .227.043.414.13.56.087.147.2.274.34.38.147.1.31.184.49.25.187.067.38.134.58.2.247.08.493.167.74.26.253.094.48.217.68.37.2.147.363.337.49.57.127.227.19.517.19.87a1.87 1.87 0 0 1-.74 1.55c-.213.167-.46.29-.74.37a2.939 2.939 0 0 1-1.47.05 2.702 2.702 0 0 1-.61-.19 2.514 2.514 0 0 1-.54-.33 2.399 2.399 0 0 1-.44-.46l.62-.46c.153.254.367.467.64.64.28.167.607.25.98.25a2 2 0 0 0 .55-.08c.187-.06.353-.146.5-.26.153-.12.277-.263.37-.43.1-.173.15-.373.15-.6 0-.246-.05-.45-.15-.61a1.175 1.175 0 0 0-.38-.41 2.238 2.238 0 0 0-.55-.28 24.471 24.471 0 0 0-.65-.22 8.616 8.616 0 0 1-.69-.25 2.406 2.406 0 0 1-.61-.36 1.818 1.818 0 0 1-.44-.56c-.107-.22-.16-.49-.16-.81 0-.34.067-.633.2-.88.14-.246.32-.45.54-.61.22-.16.463-.276.73-.35.267-.073.53-.11.79-.11.48 0 .89.087 1.23.26.34.167.597.367.77.6l-.57.46ZM114.297 38.64h3.79v.64h-4.51V32.2h4.39v.64h-3.67v2.44h3.43v.63h-3.43v2.73ZM126.455 38.14c-.12.18-.267.35-.44.51-.167.16-.364.3-.59.42-.22.12-.467.214-.74.28-.267.074-.56.11-.88.11a3.845 3.845 0 0 1-1.48-.28 3.525 3.525 0 0 1-1.17-.77 3.637 3.637 0 0 1-.77-1.18c-.18-.453-.27-.95-.27-1.49s.093-1.036.28-1.49a3.524 3.524 0 0 1 1.94-1.95 3.82 3.82 0 0 1 1.47-.28 3.59 3.59 0 0 1 1.47.31c.22.094.42.21.6.35.18.134.33.287.45.46l-.6.44a1.76 1.76 0 0 0-.3-.34 1.91 1.91 0 0 0-.43-.3 2.695 2.695 0 0 0-.55-.21 2.371 2.371 0 0 0-.63-.08c-.46 0-.874.084-1.24.25a2.878 2.878 0 0 0-1.5 1.66c-.134.374-.2.767-.2 1.18 0 .414.066.807.2 1.18.14.374.336.704.59.99.253.28.56.504.92.67.366.167.776.25 1.23.25.406 0 .793-.083 1.16-.25.366-.166.673-.433.92-.8l.56.36ZM131.302 39.46c-.533 0-.97-.09-1.31-.27-.34-.186-.61-.42-.81-.7a2.63 2.63 0 0 1-.42-.91 4.406 4.406 0 0 1-.11-.94V32.2h.72v4.36c0 .287.033.567.1.84a2.2 2.2 0 0 0 .32.72c.153.207.353.377.6.51.247.127.55.19.91.19s.663-.063.91-.19c.247-.133.443-.303.59-.51a2.1 2.1 0 0 0 .33-.72c.067-.273.1-.553.1-.84V32.2h.72v4.44c0 .294-.04.607-.12.94-.073.327-.21.63-.41.91-.2.28-.473.514-.82.7-.34.18-.773.27-1.3.27ZM137.512 39.28h-.72V32.2h2.08c.346 0 .666.034.96.1.3.067.556.177.77.33.22.147.39.34.51.58.12.24.18.534.18.88a1.758 1.758 0 0 1-.52 1.27 1.87 1.87 0 0 1-.57.37c-.22.094-.46.154-.72.18l2.07 3.37h-.88l-1.96-3.31h-1.2v3.31Zm0-3.93h1.25c.58 0 1.026-.103 1.34-.31.313-.213.47-.53.47-.95 0-.233-.044-.43-.13-.59a1.07 1.07 0 0 0-.36-.39c-.154-.1-.34-.173-.56-.22a3.527 3.527 0 0 0-.73-.07h-1.28v2.53ZM144.498 39.28h-.72V32.2h.72v7.08ZM149.645 39.28h-.72v-6.44h-2.37v-.64h5.46v.64h-2.37v6.44ZM156.391 39.28h-.72v-3.05l-2.65-4.03h.9l2.13 3.43 2.15-3.43h.84l-2.65 4.03v3.05Z" fill="#C4C4C4"/></svg>