<svg width="136" height="20" fill="none" xmlns="http://www.w3.org/2000/svg"><path d="M28.486 8.973h11.84v-7.62h3.371V20h-3.371v-7.62h-11.84V20h-3.371V1.352h3.371v7.62ZM61.67 15.345c0 .468-.082.975-.246 1.521a4.553 4.553 0 0 1-.804 1.509c-.363.459-.843.845-1.44 1.157-.587.312-1.305.468-2.152.468h-6.082c-.467 0-.972-.082-1.517-.247a4.659 4.659 0 0 1-1.504-.793 4.594 4.594 0 0 1-1.154-1.444c-.312-.598-.467-1.322-.467-2.171 0-.469.082-.976.246-1.522a4.51 4.51 0 0 1 .791-1.508 4.501 4.501 0 0 1 1.44-1.17c.596-.313 1.318-.469 2.165-.469h6.082v3.225h-6.082c-.458 0-.813.143-1.063.43-.251.277-.376.623-.376 1.04 0 .442.142.789.428 1.04.293.243.64.364 1.037.364h6.056c.458 0 .812-.139 1.063-.416.25-.278.376-.624.376-1.04v-4.72c0-.443-.138-.794-.415-1.054-.268-.26-.61-.39-1.024-.39h-7.405V5.943h7.405c.467 0 .968.082 1.504.247a4.372 4.372 0 0 1 1.504.806c.467.364.856.845 1.167 1.444.312.589.467 1.309.467 2.158v4.747ZM78.1 15.254a5.24 5.24 0 0 1-.22 1.573c-.147.46-.342.867-.584 1.222a4.162 4.162 0 0 1-.843.898c-.32.242-.657.442-1.011.598-.346.156-.7.273-1.064.351-.354.07-.691.104-1.011.104h-9.13v-3.381h9.104c.458 0 .804-.117 1.037-.351.234-.234.35-.572.35-1.014-.043-.902-.497-1.353-1.361-1.353H68.14c-.744 0-1.375-.13-1.893-.39a3.944 3.944 0 0 1-1.271-.975c-.32-.39-.553-.81-.7-1.262a4.313 4.313 0 0 1-.208-1.261c0-.754.134-1.387.402-1.899a3.785 3.785 0 0 1 2.334-1.95c.476-.148.921-.221 1.336-.221h8.286v3.38h-8.26c-.173 0-.311.022-.415.066a.466.466 0 0 0-.22.156.435.435 0 0 0-.078.208 1.69 1.69 0 0 0-.013.208.78.78 0 0 0 .078.325.424.424 0 0 0 .155.17c.07.034.143.056.22.064h5.473c.864 0 1.6.156 2.204.468.606.312 1.094.707 1.466 1.184.371.468.64.98.804 1.534.173.555.259 1.07.259 1.548ZM96.06 20h-3.371v-9.324c0-.442-.113-.776-.338-1.001-.224-.234-.562-.351-1.011-.351h-6.082V5.943h6.082c.32 0 .657.039 1.011.117.355.07.705.182 1.05.338.355.156.692.36 1.012.611.32.243.601.542.843.897.242.347.437.75.584 1.21.147.46.22.98.22 1.56V20Zm-12.163 0h-3.372V0h3.371v20ZM114.811 12.38h-10.646V8.973h10.646v3.407Zm1.517 7.62h-12.163a5.39 5.39 0 0 1-1.53-.247 4.626 4.626 0 0 1-1.544-.806 4.78 4.78 0 0 1-1.18-1.47c-.31-.607-.466-1.348-.466-2.223V3.056c0-.234.043-.455.13-.663a1.79 1.79 0 0 1 .35-.546c.155-.156.337-.278.544-.365.207-.086.432-.13.674-.13h15.185v3.381h-13.512v10.52c0 .443.117.78.35 1.015.234.234.575.351 1.025.351h12.137V20ZM135.235 5.943l-6.056 6.632L136 20h-4.642l-4.487-4.902L122.384 20h-4.655l6.808-7.451-6.03-6.606h4.616l3.722 4.07 3.748-4.07h4.642Z" fill="#fff"/><path d="M2.345 5.639h3.002l1.033-4.54h3.393l-1.02 4.54h3.49l1.02-4.54h3.406l-1.033 4.54h3.211l-.726 3.205h-3.197l-.74 3.356h3.086l-.712 3.205h-3.086L12.44 20H9.033l1.033-4.595h-3.49L5.542 20H2.15l1.02-4.595H0L.768 12.2H3.88l.754-3.356H1.578l.767-3.205ZM7.288 12.2h3.49l.74-3.356h-3.49l-.74 3.356Z" fill="#C2F051"/></svg>