<svg width="280" height="60" viewBox="0 0 280 60" fill="none" xmlns="http://www.w3.org/2000/svg">
<rect width="280" height="60" fill="url(#paint0_linear_3949_12460)"/>
<rect x="19" y="5" width="242" height="26" rx="8" fill="#E00070"/>
<path d="M30.312 11.672H33.384L36.408 19.608L39.464 11.672H42.504V23H40.584V13.592H40.552L37.112 23H35.704L32.264 13.592H32.232V23H30.312V11.672ZM48.7405 11.672H50.4845L55.3645 23H53.0605L52.0045 20.408H47.0925L46.0685 23H43.8125L48.7405 11.672ZM51.3005 18.68L49.5565 14.072L47.7805 18.68H51.3005ZM59.3914 17.08L55.6154 11.672H58.1594L60.8314 15.864L63.4714 11.672H65.9194L62.2074 17.08L66.3194 23H63.7594L60.7674 18.216L57.7914 23H55.3594L59.3914 17.08ZM67.5285 11.672H69.5445V23H67.5285V11.672ZM72.0776 11.672H75.1496L78.1736 19.608L81.2296 11.672H84.2696V23H82.3496V13.592H82.3176L78.8776 23H77.4696L74.0296 13.592H73.9976V23H72.0776V11.672ZM86.7941 11.672H88.8101V23H86.7941V11.672ZM90.5913 21.176L96.6393 13.496H90.6873V11.672H99.1513V13.496L93.0553 21.176H99.2473V23H90.5913V21.176ZM101.077 11.672H108.581V13.496H103.093V16.28H108.293V18.104H103.093V21.176H108.869V23H101.077V11.672ZM112.922 19.448H111.002V11.672H112.922V19.448ZM110.682 21.88C110.682 21.5387 110.804 21.2453 111.05 21C111.306 20.7547 111.61 20.632 111.962 20.632C112.303 20.632 112.602 20.7493 112.858 20.984C113.114 21.2187 113.242 21.5067 113.242 21.848C113.242 22.1893 113.114 22.4827 112.858 22.728C112.612 22.9733 112.314 23.096 111.962 23.096C111.791 23.096 111.626 23.064 111.466 23C111.316 22.936 111.183 22.8507 111.066 22.744C110.948 22.6373 110.852 22.5093 110.778 22.36C110.714 22.2107 110.682 22.0507 110.682 21.88ZM123.095 18.152L118.838 11.672H121.367L124.151 16.184L126.967 11.672H129.367L125.111 18.152V23H123.095V18.152ZM129.797 17.384C129.797 16.4773 129.946 15.656 130.245 14.92C130.543 14.1733 130.954 13.5387 131.477 13.016C132.01 12.4933 132.639 12.0933 133.365 11.816C134.101 11.528 134.906 11.384 135.781 11.384C136.666 11.3733 137.477 11.5067 138.213 11.784C138.949 12.0507 139.583 12.4453 140.117 12.968C140.65 13.4907 141.066 14.12 141.365 14.856C141.663 15.592 141.813 16.4133 141.813 17.32C141.813 18.2053 141.663 19.0107 141.365 19.736C141.066 20.4613 140.65 21.0853 140.117 21.608C139.583 22.1307 138.949 22.5413 138.213 22.84C137.477 23.128 136.666 23.2773 135.781 23.288C134.906 23.288 134.101 23.1493 133.365 22.872C132.639 22.584 132.01 22.184 131.477 21.672C130.954 21.1493 130.543 20.5253 130.245 19.8C129.946 19.0747 129.797 18.2693 129.797 17.384ZM131.909 17.256C131.909 17.864 131.999 18.424 132.181 18.936C132.373 19.448 132.639 19.8907 132.981 20.264C133.322 20.6373 133.727 20.9307 134.197 21.144C134.677 21.3573 135.21 21.464 135.797 21.464C136.383 21.464 136.917 21.3573 137.397 21.144C137.877 20.9307 138.287 20.6373 138.629 20.264C138.97 19.8907 139.231 19.448 139.413 18.936C139.605 18.424 139.701 17.864 139.701 17.256C139.701 16.6907 139.605 16.1627 139.413 15.672C139.231 15.1813 138.97 14.7547 138.629 14.392C138.287 14.0187 137.877 13.7307 137.397 13.528C136.917 13.3147 136.383 13.208 135.797 13.208C135.21 13.208 134.677 13.3147 134.197 13.528C133.727 13.7307 133.322 14.0187 132.981 14.392C132.639 14.7547 132.373 15.1813 132.181 15.672C131.999 16.1627 131.909 16.6907 131.909 17.256ZM152.805 18.84C152.805 19.5227 152.687 20.1413 152.453 20.696C152.218 21.24 151.898 21.704 151.493 22.088C151.087 22.472 150.607 22.7707 150.053 22.984C149.498 23.1867 148.895 23.288 148.245 23.288C147.594 23.288 146.991 23.1867 146.437 22.984C145.882 22.7707 145.397 22.472 144.981 22.088C144.575 21.704 144.255 21.24 144.021 20.696C143.797 20.1413 143.685 19.5227 143.685 18.84V11.672H145.701V18.776C145.701 19.0533 145.743 19.3467 145.829 19.656C145.914 19.9547 146.053 20.232 146.245 20.488C146.447 20.744 146.709 20.9573 147.029 21.128C147.359 21.288 147.765 21.368 148.245 21.368C148.725 21.368 149.125 21.288 149.445 21.128C149.775 20.9573 150.037 20.744 150.229 20.488C150.431 20.232 150.575 19.9547 150.661 19.656C150.746 19.3467 150.789 19.0533 150.789 18.776V11.672H152.805V18.84ZM155.28 11.672H159.216C159.76 11.672 160.282 11.7253 160.784 11.832C161.296 11.928 161.749 12.0987 162.144 12.344C162.538 12.5893 162.853 12.92 163.088 13.336C163.322 13.752 163.44 14.28 163.44 14.92C163.44 15.7413 163.21 16.4293 162.752 16.984C162.304 17.5387 161.658 17.8747 160.816 17.992L163.824 23H161.392L158.768 18.2H157.296V23H155.28V11.672ZM158.864 16.472C159.152 16.472 159.44 16.4613 159.728 16.44C160.016 16.408 160.277 16.344 160.512 16.248C160.757 16.1413 160.954 15.9867 161.104 15.784C161.253 15.5707 161.328 15.2773 161.328 14.904C161.328 14.5733 161.258 14.3067 161.12 14.104C160.981 13.9013 160.8 13.752 160.576 13.656C160.352 13.5493 160.101 13.48 159.824 13.448C159.557 13.416 159.296 13.4 159.04 13.4H157.296V16.472H158.864ZM170.092 11.672H172.108V21.176H176.924V23H170.092V11.672ZM178.389 11.672H185.893V13.496H180.405V16.28H185.605V18.104H180.405V21.176H186.181V23H178.389V11.672ZM188.17 11.672H190.842L196.33 20.088H196.362V11.672H198.378V23H195.818L190.218 14.312H190.186V23H188.17V11.672ZM200.905 11.672H205.369C206.115 11.672 206.835 11.7893 207.529 12.024C208.222 12.248 208.835 12.5947 209.369 13.064C209.902 13.5333 210.329 14.1253 210.649 14.84C210.969 15.544 211.129 16.376 211.129 17.336C211.129 18.3067 210.942 19.1493 210.569 19.864C210.206 20.568 209.731 21.1547 209.145 21.624C208.569 22.0827 207.923 22.4293 207.209 22.664C206.505 22.888 205.811 23 205.129 23H200.905V11.672ZM204.425 21.176C205.054 21.176 205.646 21.1067 206.201 20.968C206.766 20.8187 207.257 20.5947 207.673 20.296C208.089 19.9867 208.414 19.592 208.649 19.112C208.894 18.6213 209.017 18.0293 209.017 17.336C209.017 16.6533 208.91 16.0667 208.697 15.576C208.483 15.0853 208.185 14.6907 207.801 14.392C207.427 14.0827 206.979 13.8587 206.457 13.72C205.945 13.5707 205.379 13.496 204.761 13.496H202.921V21.176H204.425ZM212.997 11.672H215.013V23H212.997V11.672ZM217.498 11.672H220.17L225.658 20.088H225.69V11.672H227.706V23H225.146L219.546 14.312H219.514V23H217.498V11.672ZM240.297 22.168C238.899 22.9147 237.337 23.288 235.609 23.288C234.734 23.288 233.929 23.1493 233.193 22.872C232.467 22.584 231.838 22.184 231.305 21.672C230.782 21.1493 230.371 20.5253 230.073 19.8C229.774 19.0747 229.625 18.2693 229.625 17.384C229.625 16.4773 229.774 15.656 230.073 14.92C230.371 14.1733 230.782 13.5387 231.305 13.016C231.838 12.4933 232.467 12.0933 233.193 11.816C233.929 11.528 234.734 11.384 235.609 11.384C236.473 11.384 237.283 11.4907 238.041 11.704C238.798 11.9067 239.475 12.2747 240.073 12.808L238.585 14.312C238.222 13.96 237.779 13.688 237.257 13.496C236.745 13.304 236.201 13.208 235.625 13.208C235.038 13.208 234.505 13.3147 234.025 13.528C233.555 13.7307 233.15 14.0187 232.809 14.392C232.467 14.7547 232.201 15.1813 232.009 15.672C231.827 16.1627 231.737 16.6907 231.737 17.256C231.737 17.864 231.827 18.424 232.009 18.936C232.201 19.448 232.467 19.8907 232.809 20.264C233.15 20.6373 233.555 20.9307 234.025 21.144C234.505 21.3573 235.038 21.464 235.625 21.464C236.137 21.464 236.617 21.416 237.065 21.32C237.523 21.224 237.929 21.0747 238.281 20.872V18.2H235.961V16.376H240.297V22.168ZM248.238 14.104C248.025 13.7947 247.737 13.5707 247.374 13.432C247.022 13.2827 246.649 13.208 246.254 13.208C246.019 13.208 245.79 13.2347 245.566 13.288C245.353 13.3413 245.155 13.4267 244.974 13.544C244.803 13.6613 244.665 13.816 244.558 14.008C244.451 14.1893 244.398 14.408 244.398 14.664C244.398 15.048 244.531 15.3413 244.798 15.544C245.065 15.7467 245.395 15.9227 245.79 16.072C246.185 16.2213 246.617 16.3653 247.086 16.504C247.555 16.6427 247.987 16.8347 248.382 17.08C248.777 17.3253 249.107 17.6507 249.374 18.056C249.641 18.4613 249.774 19 249.774 19.672C249.774 20.28 249.662 20.8133 249.438 21.272C249.214 21.72 248.91 22.0933 248.526 22.392C248.153 22.6907 247.715 22.9147 247.214 23.064C246.713 23.2133 246.185 23.288 245.63 23.288C244.926 23.288 244.249 23.1707 243.598 22.936C242.947 22.7013 242.387 22.3067 241.918 21.752L243.438 20.28C243.683 20.6533 244.003 20.9467 244.398 21.16C244.803 21.3627 245.23 21.464 245.678 21.464C245.913 21.464 246.147 21.432 246.382 21.368C246.617 21.304 246.83 21.208 247.022 21.08C247.214 20.952 247.369 20.792 247.486 20.6C247.603 20.3973 247.662 20.168 247.662 19.912C247.662 19.496 247.529 19.176 247.262 18.952C246.995 18.728 246.665 18.5413 246.27 18.392C245.875 18.232 245.443 18.0827 244.974 17.944C244.505 17.8053 244.073 17.6187 243.678 17.384C243.283 17.1387 242.953 16.8187 242.686 16.424C242.419 16.0187 242.286 15.48 242.286 14.808C242.286 14.2213 242.403 13.7147 242.638 13.288C242.883 12.8613 243.198 12.5093 243.582 12.232C243.977 11.944 244.425 11.7307 244.926 11.592C245.427 11.4533 245.939 11.384 246.462 11.384C247.059 11.384 247.635 11.4747 248.19 11.656C248.755 11.8373 249.262 12.136 249.71 12.552L248.238 14.104Z" fill="white"/>
<path d="M62.9964 47.8916L72.9245 53.5175H53.0684L62.9964 47.8916Z" fill="#22272C"/>
<path d="M62.9707 36.3098L72.9154 53.5195L62.9707 47.7829L62.9707 36.3098Z" fill="url(#paint1_linear_3949_12460)"/>
<path d="M53.026 53.5195L62.9707 36.3098L62.9707 47.7829L53.026 53.5195Z" fill="url(#paint2_linear_3949_12460)"/>
<line x1="58.1982" y1="50.6377" x2="67.6959" y2="50.6377" stroke="black" stroke-width="0.459431"/>
<line y1="-0.229715" x2="9.49149" y2="-0.229715" transform="matrix(-0.500327 -0.865836 0.866214 -0.499673 68.1182 50.4407)" stroke="black" stroke-width="0.459431"/>
<line y1="-0.229715" x2="9.49149" y2="-0.229715" transform="matrix(-0.500328 0.865836 -0.866215 -0.499672 62.5996 42.2222)" stroke="black" stroke-width="0.459431"/>
<path d="M62.9726 36.3098L63.5324 43.874H62.4128L62.9726 36.3098Z" fill="black"/>
<path d="M72.8808 53.4973L66.0052 50.2818L66.5534 49.3063L72.8808 53.4973Z" fill="black"/>
<path d="M53.059 53.4953L59.9045 50.2163L59.3473 49.246L53.059 53.4953Z" fill="black"/>
<path d="M62.998 42.2725L67.7534 50.5017L62.9981 47.7586L62.998 42.2725Z" fill="url(#paint3_linear_3949_12460)"/>
<path d="M58.2427 50.5017L62.998 42.2725L62.9981 47.7586L58.2427 50.5017Z" fill="url(#paint4_linear_3949_12460)"/>
<path d="M62.9988 47.7583L67.7541 50.5014L58.2434 50.5013L62.9988 47.7583Z" fill="url(#paint5_linear_3949_12460)"/>
<path d="M80.62 39.38H82.255L86.83 50H84.67L83.68 47.57H79.075L78.115 50H76L80.62 39.38ZM83.02 45.95L81.385 41.63L79.72 45.95H83.02ZM87.8662 42.8H89.5762V43.955H89.6062C89.7762 43.595 90.0362 43.285 90.3862 43.025C90.7362 42.755 91.2112 42.62 91.8112 42.62C92.2912 42.62 92.6962 42.7 93.0262 42.86C93.3662 43.02 93.6412 43.23 93.8512 43.49C94.0612 43.75 94.2112 44.05 94.3012 44.39C94.3912 44.73 94.4362 45.085 94.4362 45.455V50H92.6362V46.355C92.6362 46.155 92.6262 45.935 92.6062 45.695C92.5862 45.445 92.5312 45.215 92.4412 45.005C92.3612 44.785 92.2312 44.605 92.0512 44.465C91.8712 44.315 91.6262 44.24 91.3162 44.24C91.0162 44.24 90.7612 44.29 90.5512 44.39C90.3512 44.49 90.1812 44.625 90.0412 44.795C89.9112 44.965 89.8162 45.16 89.7562 45.38C89.6962 45.6 89.6662 45.83 89.6662 46.07V50H87.8662V42.8ZM101.001 49.01H100.956C100.696 49.42 100.366 49.72 99.9656 49.91C99.5656 50.09 99.1256 50.18 98.6456 50.18C98.3156 50.18 97.9906 50.135 97.6706 50.045C97.3606 49.955 97.0806 49.82 96.8306 49.64C96.5906 49.46 96.3956 49.235 96.2456 48.965C96.0956 48.695 96.0206 48.38 96.0206 48.02C96.0206 47.63 96.0906 47.3 96.2306 47.03C96.3706 46.75 96.5556 46.52 96.7856 46.34C97.0256 46.15 97.3006 46 97.6106 45.89C97.9206 45.78 98.2406 45.7 98.5706 45.65C98.9106 45.59 99.2506 45.555 99.5906 45.545C99.9306 45.525 100.251 45.515 100.551 45.515H101.001V45.32C101.001 44.87 100.846 44.535 100.536 44.315C100.226 44.085 99.8306 43.97 99.3506 43.97C98.9706 43.97 98.6156 44.04 98.2856 44.18C97.9556 44.31 97.6706 44.49 97.4306 44.72L96.4856 43.775C96.8856 43.365 97.3506 43.07 97.8806 42.89C98.4206 42.71 98.9756 42.62 99.5456 42.62C100.056 42.62 100.486 42.68 100.836 42.8C101.186 42.91 101.476 43.055 101.706 43.235C101.936 43.415 102.111 43.625 102.231 43.865C102.361 44.095 102.451 44.33 102.501 44.57C102.561 44.81 102.596 45.045 102.606 45.275C102.616 45.495 102.621 45.69 102.621 45.86V50H101.001V49.01ZM100.896 46.775H100.521C100.271 46.775 99.9906 46.785 99.6806 46.805C99.3706 46.825 99.0756 46.875 98.7956 46.955C98.5256 47.025 98.2956 47.135 98.1056 47.285C97.9156 47.425 97.8206 47.625 97.8206 47.885C97.8206 48.055 97.8556 48.2 97.9256 48.32C98.0056 48.43 98.1056 48.525 98.2256 48.605C98.3456 48.685 98.4806 48.745 98.6306 48.785C98.7806 48.815 98.9306 48.83 99.0806 48.83C99.7006 48.83 100.156 48.685 100.446 48.395C100.746 48.095 100.896 47.69 100.896 47.18V46.775ZM104.608 38.66H106.408V50H104.608V38.66ZM107.521 42.8H109.501L111.511 47.795H111.541L113.341 42.8H115.216L111.811 51.545C111.681 51.885 111.536 52.18 111.376 52.43C111.226 52.69 111.046 52.905 110.836 53.075C110.626 53.255 110.376 53.385 110.086 53.465C109.806 53.555 109.466 53.6 109.066 53.6C108.596 53.6 108.136 53.54 107.686 53.42L107.911 51.8C108.051 51.85 108.196 51.89 108.346 51.92C108.506 51.96 108.666 51.98 108.826 51.98C109.046 51.98 109.231 51.96 109.381 51.92C109.531 51.88 109.656 51.815 109.756 51.725C109.866 51.645 109.956 51.535 110.026 51.395C110.096 51.265 110.171 51.105 110.251 50.915L110.596 50.06L107.521 42.8ZM115.455 44.33V42.8H116.94V40.715H118.74V42.8H120.72V44.33H118.74V47.48C118.74 47.84 118.805 48.125 118.935 48.335C119.075 48.545 119.345 48.65 119.745 48.65C119.905 48.65 120.08 48.635 120.27 48.605C120.46 48.565 120.61 48.505 120.72 48.425V49.94C120.53 50.03 120.295 50.09 120.015 50.12C119.745 50.16 119.505 50.18 119.295 50.18C118.815 50.18 118.42 50.125 118.11 50.015C117.81 49.915 117.57 49.76 117.39 49.55C117.22 49.33 117.1 49.06 117.03 48.74C116.97 48.42 116.94 48.05 116.94 47.63V44.33H115.455Z" fill="white"/>
<path d="M123.185 39.38H130.22V41.09H125.075V43.7H129.95V45.41H125.075V48.29H130.49V50H123.185V39.38ZM134.071 46.13L131.581 42.8H133.771L135.211 44.96L136.771 42.8H138.826L136.366 46.13L139.261 50H137.071L135.196 47.42L133.306 50H131.176L134.071 46.13Z" fill="#E00070"/>
<path d="M145.66 46.4C145.66 45.83 145.76 45.315 145.96 44.855C146.17 44.385 146.45 43.985 146.8 43.655C147.15 43.325 147.565 43.07 148.045 42.89C148.525 42.71 149.035 42.62 149.575 42.62C150.115 42.62 150.625 42.71 151.105 42.89C151.585 43.07 152 43.325 152.35 43.655C152.7 43.985 152.975 44.385 153.175 44.855C153.385 45.315 153.49 45.83 153.49 46.4C153.49 46.97 153.385 47.49 153.175 47.96C152.975 48.42 152.7 48.815 152.35 49.145C152 49.475 151.585 49.73 151.105 49.91C150.625 50.09 150.115 50.18 149.575 50.18C149.035 50.18 148.525 50.09 148.045 49.91C147.565 49.73 147.15 49.475 146.8 49.145C146.45 48.815 146.17 48.42 145.96 47.96C145.76 47.49 145.66 46.97 145.66 46.4ZM147.46 46.4C147.46 46.68 147.505 46.95 147.595 47.21C147.695 47.47 147.835 47.7 148.015 47.9C148.205 48.1 148.43 48.26 148.69 48.38C148.95 48.5 149.245 48.56 149.575 48.56C149.905 48.56 150.2 48.5 150.46 48.38C150.72 48.26 150.94 48.1 151.12 47.9C151.31 47.7 151.45 47.47 151.54 47.21C151.64 46.95 151.69 46.68 151.69 46.4C151.69 46.12 151.64 45.85 151.54 45.59C151.45 45.33 151.31 45.1 151.12 44.9C150.94 44.7 150.72 44.54 150.46 44.42C150.2 44.3 149.905 44.24 149.575 44.24C149.245 44.24 148.95 44.3 148.69 44.42C148.43 44.54 148.205 44.7 148.015 44.9C147.835 45.1 147.695 45.33 147.595 45.59C147.505 45.85 147.46 46.12 147.46 46.4ZM155.175 42.8H156.885V43.88H156.915C157.175 43.44 157.525 43.12 157.965 42.92C158.405 42.72 158.88 42.62 159.39 42.62C159.94 42.62 160.435 42.72 160.875 42.92C161.315 43.11 161.69 43.375 162 43.715C162.31 44.055 162.545 44.455 162.705 44.915C162.865 45.375 162.945 45.87 162.945 46.4C162.945 46.93 162.86 47.425 162.69 47.885C162.52 48.345 162.28 48.745 161.97 49.085C161.67 49.425 161.305 49.695 160.875 49.895C160.445 50.085 159.975 50.18 159.465 50.18C159.125 50.18 158.825 50.145 158.565 50.075C158.305 50.005 158.075 49.915 157.875 49.805C157.675 49.695 157.505 49.58 157.365 49.46C157.225 49.33 157.11 49.205 157.02 49.085H156.975V53.42H155.175V42.8ZM161.145 46.4C161.145 46.12 161.095 45.85 160.995 45.59C160.905 45.33 160.765 45.1 160.575 44.9C160.395 44.7 160.175 44.54 159.915 44.42C159.655 44.3 159.36 44.24 159.03 44.24C158.7 44.24 158.405 44.3 158.145 44.42C157.885 44.54 157.66 44.7 157.47 44.9C157.29 45.1 157.15 45.33 157.05 45.59C156.96 45.85 156.915 46.12 156.915 46.4C156.915 46.68 156.96 46.95 157.05 47.21C157.15 47.47 157.29 47.7 157.47 47.9C157.66 48.1 157.885 48.26 158.145 48.38C158.405 48.5 158.7 48.56 159.03 48.56C159.36 48.56 159.655 48.5 159.915 48.38C160.175 48.26 160.395 48.1 160.575 47.9C160.765 47.7 160.905 47.47 160.995 47.21C161.095 46.95 161.145 46.68 161.145 46.4ZM163.784 44.33V42.8H165.269V40.715H167.069V42.8H169.049V44.33H167.069V47.48C167.069 47.84 167.134 48.125 167.264 48.335C167.404 48.545 167.674 48.65 168.074 48.65C168.234 48.65 168.409 48.635 168.599 48.605C168.789 48.565 168.939 48.505 169.049 48.425V49.94C168.859 50.03 168.624 50.09 168.344 50.12C168.074 50.16 167.834 50.18 167.624 50.18C167.144 50.18 166.749 50.125 166.439 50.015C166.139 49.915 165.899 49.76 165.719 49.55C165.549 49.33 165.429 49.06 165.359 48.74C165.299 48.42 165.269 48.05 165.269 47.63V44.33H163.784ZM170.498 42.8H172.298V50H170.498V42.8ZM170.243 40.355C170.243 40.065 170.348 39.815 170.558 39.605C170.778 39.385 171.053 39.275 171.383 39.275C171.713 39.275 171.988 39.38 172.208 39.59C172.438 39.79 172.553 40.045 172.553 40.355C172.553 40.665 172.438 40.925 172.208 41.135C171.988 41.335 171.713 41.435 171.383 41.435C171.053 41.435 170.778 41.33 170.558 41.12C170.348 40.9 170.243 40.645 170.243 40.355ZM174.29 42.8H176V43.925H176.03C176.19 43.585 176.445 43.285 176.795 43.025C177.155 42.755 177.635 42.62 178.235 42.62C179.365 42.62 180.115 43.065 180.485 43.955C180.745 43.495 181.07 43.16 181.46 42.95C181.85 42.73 182.315 42.62 182.855 42.62C183.335 42.62 183.74 42.7 184.07 42.86C184.4 43.02 184.665 43.24 184.865 43.52C185.075 43.8 185.225 44.13 185.315 44.51C185.405 44.88 185.45 45.28 185.45 45.71V50H183.65V45.92C183.65 45.7 183.63 45.49 183.59 45.29C183.55 45.08 183.48 44.9 183.38 44.75C183.28 44.59 183.145 44.465 182.975 44.375C182.805 44.285 182.585 44.24 182.315 44.24C182.035 44.24 181.795 44.295 181.595 44.405C181.405 44.505 181.245 44.645 181.115 44.825C180.995 44.995 180.905 45.195 180.845 45.425C180.795 45.645 180.77 45.87 180.77 46.1V50H178.97V45.71C178.97 45.26 178.875 44.905 178.685 44.645C178.495 44.375 178.18 44.24 177.74 44.24C177.44 44.24 177.185 44.29 176.975 44.39C176.775 44.49 176.605 44.625 176.465 44.795C176.335 44.965 176.24 45.16 176.18 45.38C176.12 45.6 176.09 45.83 176.09 46.07V50H174.29V42.8ZM187.446 42.8H189.246V50H187.446V42.8ZM187.191 40.355C187.191 40.065 187.296 39.815 187.506 39.605C187.726 39.385 188.001 39.275 188.331 39.275C188.661 39.275 188.936 39.38 189.156 39.59C189.386 39.79 189.501 40.045 189.501 40.355C189.501 40.665 189.386 40.925 189.156 41.135C188.936 41.335 188.661 41.435 188.331 41.435C188.001 41.435 187.726 41.33 187.506 41.12C187.296 40.9 187.191 40.645 187.191 40.355ZM190.803 48.335L194.658 44.27V44.24H190.983V42.8H196.833V44.435L192.933 48.56H197.013V50H190.803V48.335ZM203.049 49.01H203.004C202.744 49.42 202.414 49.72 202.014 49.91C201.614 50.09 201.174 50.18 200.694 50.18C200.364 50.18 200.039 50.135 199.719 50.045C199.409 49.955 199.129 49.82 198.879 49.64C198.639 49.46 198.444 49.235 198.294 48.965C198.144 48.695 198.069 48.38 198.069 48.02C198.069 47.63 198.139 47.3 198.279 47.03C198.419 46.75 198.604 46.52 198.834 46.34C199.074 46.15 199.349 46 199.659 45.89C199.969 45.78 200.289 45.7 200.619 45.65C200.959 45.59 201.299 45.555 201.639 45.545C201.979 45.525 202.299 45.515 202.599 45.515H203.049V45.32C203.049 44.87 202.894 44.535 202.584 44.315C202.274 44.085 201.879 43.97 201.399 43.97C201.019 43.97 200.664 44.04 200.334 44.18C200.004 44.31 199.719 44.49 199.479 44.72L198.534 43.775C198.934 43.365 199.399 43.07 199.929 42.89C200.469 42.71 201.024 42.62 201.594 42.62C202.104 42.62 202.534 42.68 202.884 42.8C203.234 42.91 203.524 43.055 203.754 43.235C203.984 43.415 204.159 43.625 204.279 43.865C204.409 44.095 204.499 44.33 204.549 44.57C204.609 44.81 204.644 45.045 204.654 45.275C204.664 45.495 204.669 45.69 204.669 45.86V50H203.049V49.01ZM202.944 46.775H202.569C202.319 46.775 202.039 46.785 201.729 46.805C201.419 46.825 201.124 46.875 200.844 46.955C200.574 47.025 200.344 47.135 200.154 47.285C199.964 47.425 199.869 47.625 199.869 47.885C199.869 48.055 199.904 48.2 199.974 48.32C200.054 48.43 200.154 48.525 200.274 48.605C200.394 48.685 200.529 48.745 200.679 48.785C200.829 48.815 200.979 48.83 201.129 48.83C201.749 48.83 202.204 48.685 202.494 48.395C202.794 48.095 202.944 47.69 202.944 47.18V46.775ZM205.766 44.33V42.8H207.251V40.715H209.051V42.8H211.031V44.33H209.051V47.48C209.051 47.84 209.116 48.125 209.246 48.335C209.386 48.545 209.656 48.65 210.056 48.65C210.216 48.65 210.391 48.635 210.581 48.605C210.771 48.565 210.921 48.505 211.031 48.425V49.94C210.841 50.03 210.606 50.09 210.326 50.12C210.056 50.16 209.816 50.18 209.606 50.18C209.126 50.18 208.731 50.125 208.421 50.015C208.121 49.915 207.881 49.76 207.701 49.55C207.531 49.33 207.411 49.06 207.341 48.74C207.281 48.42 207.251 48.05 207.251 47.63V44.33H205.766ZM212.481 42.8H214.281V50H212.481V42.8ZM212.226 40.355C212.226 40.065 212.331 39.815 212.541 39.605C212.761 39.385 213.036 39.275 213.366 39.275C213.696 39.275 213.971 39.38 214.191 39.59C214.421 39.79 214.536 40.045 214.536 40.355C214.536 40.665 214.421 40.925 214.191 41.135C213.971 41.335 213.696 41.435 213.366 41.435C213.036 41.435 212.761 41.33 212.541 41.12C212.331 40.9 212.226 40.645 212.226 40.355ZM215.987 46.4C215.987 45.83 216.087 45.315 216.287 44.855C216.497 44.385 216.777 43.985 217.127 43.655C217.477 43.325 217.892 43.07 218.372 42.89C218.852 42.71 219.362 42.62 219.902 42.62C220.442 42.62 220.952 42.71 221.432 42.89C221.912 43.07 222.327 43.325 222.677 43.655C223.027 43.985 223.302 44.385 223.502 44.855C223.712 45.315 223.817 45.83 223.817 46.4C223.817 46.97 223.712 47.49 223.502 47.96C223.302 48.42 223.027 48.815 222.677 49.145C222.327 49.475 221.912 49.73 221.432 49.91C220.952 50.09 220.442 50.18 219.902 50.18C219.362 50.18 218.852 50.09 218.372 49.91C217.892 49.73 217.477 49.475 217.127 49.145C216.777 48.815 216.497 48.42 216.287 47.96C216.087 47.49 215.987 46.97 215.987 46.4ZM217.787 46.4C217.787 46.68 217.832 46.95 217.922 47.21C218.022 47.47 218.162 47.7 218.342 47.9C218.532 48.1 218.757 48.26 219.017 48.38C219.277 48.5 219.572 48.56 219.902 48.56C220.232 48.56 220.527 48.5 220.787 48.38C221.047 48.26 221.267 48.1 221.447 47.9C221.637 47.7 221.777 47.47 221.867 47.21C221.967 46.95 222.017 46.68 222.017 46.4C222.017 46.12 221.967 45.85 221.867 45.59C221.777 45.33 221.637 45.1 221.447 44.9C221.267 44.7 221.047 44.54 220.787 44.42C220.527 44.3 220.232 44.24 219.902 44.24C219.572 44.24 219.277 44.3 219.017 44.42C218.757 44.54 218.532 44.7 218.342 44.9C218.162 45.1 218.022 45.33 217.922 45.59C217.832 45.85 217.787 46.12 217.787 46.4ZM225.502 42.8H227.212V43.955H227.242C227.412 43.595 227.672 43.285 228.022 43.025C228.372 42.755 228.847 42.62 229.447 42.62C229.927 42.62 230.332 42.7 230.662 42.86C231.002 43.02 231.277 43.23 231.487 43.49C231.697 43.75 231.847 44.05 231.937 44.39C232.027 44.73 232.072 45.085 232.072 45.455V50H230.272V46.355C230.272 46.155 230.262 45.935 230.242 45.695C230.222 45.445 230.167 45.215 230.077 45.005C229.997 44.785 229.867 44.605 229.687 44.465C229.507 44.315 229.262 44.24 228.952 44.24C228.652 44.24 228.397 44.29 228.187 44.39C227.987 44.49 227.817 44.625 227.677 44.795C227.547 44.965 227.452 45.16 227.392 45.38C227.332 45.6 227.302 45.83 227.302 46.07V50H225.502V42.8ZM237.714 44.33V42.8H239.199V40.715H240.999V42.8H242.979V44.33H240.999V47.48C240.999 47.84 241.064 48.125 241.194 48.335C241.334 48.545 241.604 48.65 242.004 48.65C242.164 48.65 242.339 48.635 242.529 48.605C242.719 48.565 242.869 48.505 242.979 48.425V49.94C242.789 50.03 242.554 50.09 242.274 50.12C242.004 50.16 241.764 50.18 241.554 50.18C241.074 50.18 240.679 50.125 240.369 50.015C240.069 49.915 239.829 49.76 239.649 49.55C239.479 49.33 239.359 49.06 239.289 48.74C239.229 48.42 239.199 48.05 239.199 47.63V44.33H237.714ZM244.024 46.4C244.024 45.83 244.124 45.315 244.324 44.855C244.534 44.385 244.814 43.985 245.164 43.655C245.514 43.325 245.929 43.07 246.409 42.89C246.889 42.71 247.399 42.62 247.939 42.62C248.479 42.62 248.989 42.71 249.469 42.89C249.949 43.07 250.364 43.325 250.714 43.655C251.064 43.985 251.339 44.385 251.539 44.855C251.749 45.315 251.854 45.83 251.854 46.4C251.854 46.97 251.749 47.49 251.539 47.96C251.339 48.42 251.064 48.815 250.714 49.145C250.364 49.475 249.949 49.73 249.469 49.91C248.989 50.09 248.479 50.18 247.939 50.18C247.399 50.18 246.889 50.09 246.409 49.91C245.929 49.73 245.514 49.475 245.164 49.145C244.814 48.815 244.534 48.42 244.324 47.96C244.124 47.49 244.024 46.97 244.024 46.4ZM245.824 46.4C245.824 46.68 245.869 46.95 245.959 47.21C246.059 47.47 246.199 47.7 246.379 47.9C246.569 48.1 246.794 48.26 247.054 48.38C247.314 48.5 247.609 48.56 247.939 48.56C248.269 48.56 248.564 48.5 248.824 48.38C249.084 48.26 249.304 48.1 249.484 47.9C249.674 47.7 249.814 47.47 249.904 47.21C250.004 46.95 250.054 46.68 250.054 46.4C250.054 46.12 250.004 45.85 249.904 45.59C249.814 45.33 249.674 45.1 249.484 44.9C249.304 44.7 249.084 44.54 248.824 44.42C248.564 44.3 248.269 44.24 247.939 44.24C247.609 44.24 247.314 44.3 247.054 44.42C246.794 44.54 246.569 44.7 246.379 44.9C246.199 45.1 246.059 45.33 245.959 45.59C245.869 45.85 245.824 46.12 245.824 46.4ZM253.18 46.4C253.18 45.83 253.28 45.315 253.48 44.855C253.69 44.385 253.97 43.985 254.32 43.655C254.67 43.325 255.085 43.07 255.565 42.89C256.045 42.71 256.555 42.62 257.095 42.62C257.635 42.62 258.145 42.71 258.625 42.89C259.105 43.07 259.52 43.325 259.87 43.655C260.22 43.985 260.495 44.385 260.695 44.855C260.905 45.315 261.01 45.83 261.01 46.4C261.01 46.97 260.905 47.49 260.695 47.96C260.495 48.42 260.22 48.815 259.87 49.145C259.52 49.475 259.105 49.73 258.625 49.91C258.145 50.09 257.635 50.18 257.095 50.18C256.555 50.18 256.045 50.09 255.565 49.91C255.085 49.73 254.67 49.475 254.32 49.145C253.97 48.815 253.69 48.42 253.48 47.96C253.28 47.49 253.18 46.97 253.18 46.4ZM254.98 46.4C254.98 46.68 255.025 46.95 255.115 47.21C255.215 47.47 255.355 47.7 255.535 47.9C255.725 48.1 255.95 48.26 256.21 48.38C256.47 48.5 256.765 48.56 257.095 48.56C257.425 48.56 257.72 48.5 257.98 48.38C258.24 48.26 258.46 48.1 258.64 47.9C258.83 47.7 258.97 47.47 259.06 47.21C259.16 46.95 259.21 46.68 259.21 46.4C259.21 46.12 259.16 45.85 259.06 45.59C258.97 45.33 258.83 45.1 258.64 44.9C258.46 44.7 258.24 44.54 257.98 44.42C257.72 44.3 257.425 44.24 257.095 44.24C256.765 44.24 256.47 44.3 256.21 44.42C255.95 44.54 255.725 44.7 255.535 44.9C255.355 45.1 255.215 45.33 255.115 45.59C255.025 45.85 254.98 46.12 254.98 46.4ZM262.725 38.66H264.525V50H262.725V38.66Z" fill="white"/>
<path d="M14 39.38H16.07L18.065 47.03H18.095L20.48 39.38H22.34L24.68 47.03H24.71L26.795 39.38H28.715L25.625 50H23.825L21.365 41.915H21.335L18.875 50H17.135L14 39.38ZM29.7717 42.8H31.5717V50H29.7717V42.8ZM29.5167 40.355C29.5167 40.065 29.6217 39.815 29.8317 39.605C30.0517 39.385 30.3267 39.275 30.6567 39.275C30.9867 39.275 31.2617 39.38 31.4817 39.59C31.7117 39.79 31.8267 40.045 31.8267 40.355C31.8267 40.665 31.7117 40.925 31.4817 41.135C31.2617 41.335 30.9867 41.435 30.6567 41.435C30.3267 41.435 30.0517 41.33 29.8317 41.12C29.6217 40.9 29.5167 40.645 29.5167 40.355ZM32.7982 44.33V42.8H34.2832V40.715H36.0832V42.8H38.0632V44.33H36.0832V47.48C36.0832 47.84 36.1482 48.125 36.2782 48.335C36.4182 48.545 36.6882 48.65 37.0882 48.65C37.2482 48.65 37.4232 48.635 37.6132 48.605C37.8032 48.565 37.9532 48.505 38.0632 48.425V49.94C37.8732 50.03 37.6382 50.09 37.3582 50.12C37.0882 50.16 36.8482 50.18 36.6382 50.18C36.1582 50.18 35.7632 50.125 35.4532 50.015C35.1532 49.915 34.9132 49.76 34.7332 49.55C34.5632 49.33 34.4432 49.06 34.3732 48.74C34.3132 48.42 34.2832 48.05 34.2832 47.63V44.33H32.7982ZM41.2829 43.805H41.3129C41.4529 43.505 41.6979 43.235 42.0479 42.995C42.4079 42.745 42.8679 42.62 43.4279 42.62C43.9079 42.62 44.3129 42.7 44.6429 42.86C44.9829 43.02 45.2579 43.23 45.4679 43.49C45.6779 43.75 45.8279 44.05 45.9179 44.39C46.0079 44.73 46.0529 45.085 46.0529 45.455V50H44.2529V46.355C44.2529 46.155 44.2429 45.935 44.2229 45.695C44.2029 45.445 44.1479 45.215 44.0579 45.005C43.9779 44.785 43.8479 44.605 43.6679 44.465C43.4879 44.315 43.2429 44.24 42.9329 44.24C42.6329 44.24 42.3779 44.29 42.1679 44.39C41.9679 44.49 41.7979 44.625 41.6579 44.795C41.5279 44.965 41.4329 45.16 41.3729 45.38C41.3129 45.6 41.2829 45.83 41.2829 46.07V50H39.4829V38.66H41.2829V43.805Z" fill="white"/>
<defs>
<linearGradient id="paint0_linear_3949_12460" x1="9.02667e-06" y1="60" x2="280" y2="3.76368e-07" gradientUnits="userSpaceOnUse">
<stop stop-color="#253544"/>
<stop offset="1" stop-color="#090B0D"/>
</linearGradient>
<linearGradient id="paint1_linear_3949_12460" x1="24344.1" y1="47356.5" x2="23477.4" y2="48097.4" gradientUnits="userSpaceOnUse">
<stop stop-color="#2A3035"/>
<stop offset="1" stop-color="#35404B"/>
</linearGradient>
<linearGradient id="paint2_linear_3949_12460" x1="89470.4" y1="-238188" x2="90015.3" y2="-237873" gradientUnits="userSpaceOnUse">
<stop stop-color="#808D9C"/>
<stop offset="1" stop-color="#6E7379"/>
</linearGradient>
<linearGradient id="paint3_linear_3949_12460" x1="66.4278" y1="49.4765" x2="63.0249" y2="45.5486" gradientUnits="userSpaceOnUse">
<stop stop-color="#BC3176"/>
<stop offset="1" stop-color="#96245D"/>
</linearGradient>
<linearGradient id="paint4_linear_3949_12460" x1="58.7948" y1="49.9236" x2="62.8917" y2="42.4682" gradientUnits="userSpaceOnUse">
<stop stop-color="#D25292"/>
<stop offset="1" stop-color="#C471ED"/>
</linearGradient>
<linearGradient id="paint5_linear_3949_12460" x1="59.0441" y1="50.0971" x2="66.8014" y2="50.0971" gradientUnits="userSpaceOnUse">
<stop stop-color="#BC025F"/>
<stop offset="1" stop-color="#800140"/>
</linearGradient>
</defs>
</svg>
