<?xml version="1.0" encoding="UTF-8"?>
<svg width="172px" height="27px" viewBox="0 0 172 27" version="1.1" xmlns="http://www.w3.org/2000/svg" xmlns:xlink="http://www.w3.org/1999/xlink">
    <!-- Generator: Sketch 57.1 (83088) - https://sketch.com -->
    <title>logo_OZ</title>
    <desc>Created with Sketch.</desc>
    <g id="Symbols" stroke="none" stroke-width="1" fill="none" fill-rule="evenodd">
        <g id="navbar-" transform="translate(-213.000000, -21.000000)" fill-rule="nonzero">
            <g id="logo_OZ" transform="translate(213.000000, 21.000000)">
                <g id="Group-7-Copy-4" transform="translate(0.000000, 0.067328)">
                    <path d="M24.170038,26.7873277 L24.170038,19.8202653 L16.5829279,19.8202653 C14.5196487,19.8202653 12.6084142,20.9033756 11.551665,22.6716696 L9.09195932,26.7873277 L24.170038,26.7873277 Z" id="Stroke-1" fill="#63D2F9"></path>
                    <polygon id="Stroke-3" fill="#4E5EE4" points="0.0223703193 0.0223347943 0.0223703193 6.98939719 20.0061642 6.98939719 24.1700514 0.0223347943"></polygon>
                    <path d="M9.58640246,10.9107904 L0.0443736188,26.7873411 L8.17395715,26.7873411 L19.5845209,7.79329795 L15.0953286,7.79329795 C12.8373049,7.79329795 10.7453802,8.97711796 9.58640246,10.9107904 Z" id="Stroke-5" fill="#63B0F9"></path>
                </g>
                <path d="M41.4659819,20.1693916 C37.3780734,20.1693916 34.3699897,17.1979673 34.3699897,13.2105077 C34.3699897,9.26138892 37.397356,6.25162368 41.4852645,6.25162368 C45.573173,6.25162368 48.6005393,9.29972987 48.6005393,13.2105077 C48.6005393,17.1596263 45.5538905,20.1693916 41.4659819,20.1693916 Z M41.4852645,17.7347407 C44.0691312,17.7347407 45.9202596,15.8176929 45.9202596,13.2105077 C45.9202596,10.6416634 44.0691312,8.68627455 41.4852645,8.68627455 C38.8821152,8.68627455 37.0309869,10.6416634 37.0309869,13.2105077 C37.0309869,15.8176929 38.8821152,17.7347407 41.4852645,17.7347407 Z M51.3379543,24.3293857 L51.3379543,9.83650329 L53.8061254,9.83650329 L53.8061254,11.1209254 L53.9411035,11.1209254 C54.2110597,10.6991749 55.136624,9.58728707 56.9877523,9.58728707 C59.8222927,9.58728707 61.769834,11.6960398 61.769834,14.8399984 C61.769834,17.983957 59.8415752,20.1693916 57.0648826,20.1693916 C55.2716021,20.1693916 54.3074727,19.1725267 53.9796688,18.6165827 L53.8446907,18.6165827 L53.8446907,24.3293857 L51.3379543,24.3293857 Z M56.5056877,17.907275 C58.125425,17.907275 59.2245325,16.6611939 59.2245325,14.8783394 C59.2245325,13.0379733 58.125425,11.8494036 56.486405,11.8494036 C54.8281026,11.8494036 53.7868429,13.1721667 53.7868429,14.8783394 C53.7868429,16.7570463 54.9437981,17.907275 56.5056877,17.907275 Z M68.9422441,20.1693916 C65.9534431,20.1693916 63.8323584,17.9456161 63.8323584,14.9358507 C63.8323584,11.7535512 65.9727256,9.58728707 68.9422441,9.58728707 C72.2010014,9.58728707 73.9749994,11.983597 73.9749994,14.8208279 L73.9749994,15.6068175 L66.2619645,15.6068175 C66.3390948,17.1404559 67.3996371,18.1756617 69.0193744,18.1756617 C70.2534601,18.1756617 71.1983068,17.6005474 71.5453935,16.7762168 L73.8785864,16.7762168 C73.3772393,18.8274581 71.564676,20.1693916 68.9422441,20.1693916 Z M66.3005296,13.8431335 L71.5839586,13.8431335 C71.468263,12.4820294 70.4077208,11.5810169 68.9422441,11.5810169 C67.5346152,11.5810169 66.4547904,12.5778818 66.3005296,13.8431335 Z M76.6738492,19.9201754 L76.6738492,9.83650329 L79.0648901,9.83650329 L79.0648901,11.063414 L79.1998683,11.063414 C79.6048026,10.3157653 80.6074971,9.58728707 82.0536912,9.58728707 C84.3290365,9.58728707 85.7173828,11.1784368 85.7173828,13.3255305 L85.7173828,19.9201754 L83.2106464,19.9201754 L83.2106464,13.9773268 C83.2106464,12.7504162 82.4200604,11.9260855 81.263105,11.9260855 C80.0483021,11.9260855 79.1805856,12.8846095 79.1805856,14.1498611 L79.1805856,19.9201754 L76.6738492,19.9201754 Z M88.2041242,19.9201754 L88.2041242,17.6388883 L95.2229859,8.83963838 L95.2229859,8.70544502 L88.4547978,8.70544502 L88.4547978,6.5008399 L98.4238954,6.5008399 L98.4238954,8.76295646 L91.4050337,17.5622064 L91.4050337,17.7155703 L98.4624606,17.7155703 L98.4624606,19.9201754 L88.2041242,19.9201754 Z M105.249219,20.1693916 C102.260418,20.1693916 100.139333,17.9456161 100.139333,14.9358507 C100.139333,11.7535512 102.279701,9.58728707 105.249219,9.58728707 C108.507976,9.58728707 110.281974,11.983597 110.281974,14.8208279 L110.281974,15.6068175 L102.568939,15.6068175 C102.64607,17.1404559 103.706612,18.1756617 105.326349,18.1756617 C106.560435,18.1756617 107.505282,17.6005474 107.852368,16.7762168 L110.185561,16.7762168 C109.684214,18.8274581 107.871651,20.1693916 105.249219,20.1693916 Z M102.607504,13.8431335 L107.890933,13.8431335 C107.775238,12.4820294 106.714696,11.5810169 105.249219,11.5810169 C103.84159,11.5810169 102.761765,12.5778818 102.607504,13.8431335 Z M112.980824,24.3293857 L112.980824,9.83650329 L115.448995,9.83650329 L115.448995,11.1209254 L115.583973,11.1209254 C115.85393,10.6991749 116.779494,9.58728707 118.630622,9.58728707 C121.465162,9.58728707 123.412704,11.6960398 123.412704,14.8399984 C123.412704,17.983957 121.484445,20.1693916 118.707753,20.1693916 C116.914472,20.1693916 115.950343,19.1725267 115.622539,18.6165827 L115.48756,18.6165827 L115.48756,24.3293857 L112.980824,24.3293857 Z M118.148558,17.907275 C119.768295,17.907275 120.867402,16.6611939 120.867402,14.8783394 C120.867402,13.0379733 119.768295,11.8494036 118.129275,11.8494036 C116.470972,11.8494036 115.429713,13.1721667 115.429713,14.8783394 C115.429713,16.7570463 116.586668,17.907275 118.148558,17.907275 Z M126.111554,24.3293857 L126.111554,9.83650329 L128.579725,9.83650329 L128.579725,11.1209254 L128.714703,11.1209254 C128.984659,10.6991749 129.910223,9.58728707 131.761352,9.58728707 C134.595892,9.58728707 136.543434,11.6960398 136.543434,14.8399984 C136.543434,17.983957 134.615175,20.1693916 131.838482,20.1693916 C130.045202,20.1693916 129.081072,19.1725267 128.753268,18.6165827 L128.61829,18.6165827 L128.61829,24.3293857 L126.111554,24.3293857 Z M131.279287,17.907275 C132.899024,17.907275 133.998132,16.6611939 133.998132,14.8783394 C133.998132,13.0379733 132.899024,11.8494036 131.260005,11.8494036 C129.601702,11.8494036 128.560442,13.1721667 128.560442,14.8783394 C128.560442,16.7570463 129.717398,17.907275 131.279287,17.907275 Z M143.715843,20.1693916 C140.727042,20.1693916 138.605958,17.9456161 138.605958,14.9358507 C138.605958,11.7535512 140.746325,9.58728707 143.715843,9.58728707 C146.974601,9.58728707 148.7486,11.983597 148.7486,14.8208279 L148.7486,15.6068175 L141.035564,15.6068175 C141.112694,17.1404559 142.173237,18.1756617 143.792974,18.1756617 C145.02706,18.1756617 145.971906,17.6005474 146.318993,16.7762168 L148.652186,16.7762168 C148.150838,18.8274581 146.338276,20.1693916 143.715843,20.1693916 Z M141.07413,13.8431335 L146.357558,13.8431335 C146.241862,12.4820294 145.181321,11.5810169 143.715843,11.5810169 C142.308214,11.5810169 141.228389,12.5778818 141.07413,13.8431335 Z M153.91562,19.9201754 C152.141622,19.9201754 151.138928,18.8657991 151.138928,17.0829445 L151.138928,5.54231594 L153.645664,5.54231594 L153.645664,16.8528987 C153.645664,17.4280131 153.934902,17.7347407 154.455533,17.7347407 L154.860466,17.7347407 L154.860466,19.9201754 L153.91562,19.9201754 Z M158.523446,8.49456975 C157.617164,8.49456975 156.980838,7.93862585 156.980838,7.03761332 C156.980838,6.17494176 157.617164,5.59982738 158.523446,5.59982738 C159.429728,5.59982738 160.066052,6.17494176 160.066052,7.03761332 C160.066052,7.93862585 159.429728,8.49456975 158.523446,8.49456975 Z M157.270078,19.9201754 L157.270078,9.83650329 L159.776814,9.83650329 L159.776814,19.9201754 L157.270078,19.9201754 Z M162.82275,19.9201754 L162.82275,9.83650329 L165.213792,9.83650329 L165.213792,11.063414 L165.348769,11.063414 C165.753704,10.3157653 166.756398,9.58728707 168.202593,9.58728707 C170.477938,9.58728707 171.866285,11.1784368 171.866285,13.3255305 L171.866285,19.9201754 L169.359547,19.9201754 L169.359547,13.9773268 C169.359547,12.7504162 168.568962,11.9260855 167.412006,11.9260855 C166.197204,11.9260855 165.329487,12.8846095 165.329487,14.1498611 L165.329487,19.9201754 L162.82275,19.9201754 Z" id="OpenZeppelin" fill="#fff"></path>
            </g>
        </g>
    </g>
</svg>