<svg width="120" height="22" viewBox="0 0 120 22" fill="none" xmlns="https://www.w3.org/2000/svg" className="header-svg-logo">
              <path d="M3.7781 10.136H16.5515V1.93753H20.189V22H16.5515V13.8015H3.7781V22H0.140556V1.93753H3.7781V10.136ZM39.58 16.9914C39.58 17.495 39.4913 18.0407 39.3141 18.6283C39.1369 19.2066 38.8478 19.7475 38.4467 20.2512C38.055 20.7455 37.5373 21.1606 36.8938 21.4963C36.2595 21.8321 35.4854 22 34.5713 22H28.0098C27.5061 22 26.9605 21.9114 26.3729 21.7342C25.7946 21.557 25.2536 21.2725 24.75 20.8808C24.2556 20.4797 23.8406 19.962 23.5048 19.3278C23.169 18.6842 23.0011 17.9054 23.0011 16.9914C23.0011 16.4877 23.0897 15.9421 23.267 15.3545C23.4442 14.7669 23.7286 14.2259 24.1204 13.7316C24.5214 13.2279 25.0391 12.8082 25.6733 12.4724C26.3169 12.1367 27.0957 11.9688 28.0098 11.9688H34.5713V15.4384H28.0098C27.5154 15.4384 27.133 15.5923 26.8625 15.9001C26.592 16.1986 26.4568 16.5717 26.4568 17.0194C26.4568 17.495 26.6107 17.8681 26.9185 18.1386C27.2356 18.3998 27.6087 18.5303 28.0377 18.5303H34.5713C35.0657 18.5303 35.4481 18.3811 35.7186 18.0826C35.989 17.7842 36.1243 17.4111 36.1243 16.9634V11.8848C36.1243 11.4091 35.9751 11.0314 35.6766 10.7516C35.3875 10.4718 35.019 10.3319 34.5713 10.3319H26.5827V6.8762H34.5713C35.075 6.8762 35.616 6.96481 36.1942 7.14202C36.7818 7.31923 37.3228 7.60837 37.8171 8.00944C38.3208 8.40117 38.7405 8.91882 39.0763 9.56239C39.4121 10.1966 39.58 10.9708 39.58 11.8848V16.9914ZM57.306 16.8934C57.306 17.5184 57.2267 18.0826 57.0682 18.5863C56.9096 19.0806 56.6997 19.519 56.4386 19.9014C56.1774 20.2745 55.8743 20.5963 55.5292 20.8668C55.1841 21.1279 54.8203 21.3424 54.4379 21.5103C54.0649 21.6782 53.6824 21.8041 53.2907 21.8881C52.9083 21.9627 52.5445 22 52.1994 22H42.3501V18.3625H52.1715C52.6658 18.3625 53.0389 18.2365 53.2907 17.9847C53.5425 17.7329 53.6685 17.3691 53.6685 16.8934C53.6218 15.9234 53.1321 15.4384 52.1994 15.4384H46.5612C45.7591 15.4384 45.0782 15.2985 44.5186 15.0187C43.959 14.7389 43.502 14.3891 43.1475 13.9694C42.8024 13.5497 42.5506 13.0973 42.3921 12.6123C42.2428 12.1273 42.1682 11.675 42.1682 11.2552C42.1682 10.4438 42.3128 9.76292 42.6019 9.21262C42.8911 8.653 43.2548 8.20064 43.6932 7.85554C44.1316 7.51044 44.6072 7.26327 45.1202 7.11404C45.6332 6.95548 46.1135 6.8762 46.5612 6.8762H55.5012V10.5137H46.5892C46.4027 10.5137 46.2535 10.5371 46.1415 10.5837C46.0389 10.621 45.9597 10.677 45.9037 10.7516C45.8571 10.8169 45.8291 10.8915 45.8197 10.9754C45.8104 11.0501 45.8058 11.1247 45.8058 11.1993C45.8151 11.3485 45.8431 11.4651 45.8897 11.549C45.9363 11.633 45.9923 11.6936 46.0576 11.7309C46.1322 11.7682 46.2115 11.7916 46.2954 11.8009C46.3887 11.8009 46.4773 11.8009 46.5612 11.8009H52.1994C53.1321 11.8009 53.9249 11.9688 54.5778 12.3045C55.2307 12.6403 55.7577 13.0647 56.1588 13.5777C56.5598 14.0813 56.849 14.6316 57.0262 15.2286C57.2127 15.8255 57.306 16.3805 57.306 16.8934ZM76.6829 22H73.0454V11.9688C73.0454 11.4931 72.9241 11.134 72.6816 10.8915C72.4391 10.6397 72.0754 10.5137 71.5904 10.5137H65.0288V6.8762H71.5904C71.9355 6.8762 72.2992 6.91817 72.6816 7.00212C73.064 7.07673 73.4418 7.19798 73.8149 7.36587C74.1973 7.53376 74.561 7.75294 74.9061 8.02343C75.2512 8.28458 75.5544 8.60637 75.8155 8.98878C76.0767 9.36186 76.2865 9.79556 76.4451 10.2899C76.6037 10.7842 76.6829 11.3439 76.6829 11.9688V22ZM63.5598 22H59.9222V0.482512H63.5598V22ZM96.9133 13.8015H85.427V10.136H96.9133V13.8015ZM98.5502 22H85.427C84.9234 22 84.3731 21.9114 83.7762 21.7342C83.1792 21.557 82.6243 21.2678 82.1113 20.8668C81.6076 20.4564 81.1832 19.9294 80.8381 19.2858C80.5024 18.6329 80.3345 17.8355 80.3345 16.8934V3.77029C80.3345 3.51846 80.3811 3.28063 80.4744 3.05678C80.5676 2.83293 80.6936 2.63706 80.8521 2.46917C81.02 2.30129 81.2159 2.17071 81.4397 2.07744C81.6636 1.98417 81.9061 1.93753 82.1672 1.93753H98.5502V5.57508H83.972V16.8934C83.972 17.3691 84.0979 17.7329 84.3498 17.9847C84.6016 18.2365 84.97 18.3625 85.455 18.3625H98.5502V22ZM118.948 6.8762L112.415 14.0114L119.774 22H114.765L109.925 16.7256L105.084 22H100.061L107.406 13.9834L100.901 6.8762H105.881L109.897 11.2552L113.94 6.8762H118.948Z" fill="white"></path>
            </svg>